<?xml version="1.0" encoding="utf-8"?>
<svg version="1.1" xmlns="http://www.w3.org/2000/svg" xmlns:xlink="http://www.w3.org/1999/xlink" height="122.24000000000012" width="77.65938933263624">
  <defs>
    <path id="path-1" opacity="1" fill-rule="evenodd" d="M24.715433267973363,77.07524599704945 C23.906023176174408,72.40332958867404 23.92483715506412,66.39622538337647 23.959193116514914,55.48970994680783 C23.966555108254365,53.084055601423906 23.974735099075982,50.44056575937635 23.974735099075982,47.527391145459745 L23.858170229867948,38.78952181151282 L32.12527795373473,41.111209885900706 C32.33550371785028,41.157949731331996 33.65411823829486,41.435079788313985 35.5007511662748,41.435079788313985 C41.26764469551447,41.435079788313985 45.65171077635987,39.03397533938798 48.53270354373323,34.14573203578633 L50.77729302518481,30.4144033133468 L34.823447926244945,30.4144033133468 C39.05618417689043,27.10538770759175 41.82388407138439,22.342059743107356 41.82388407138439,16.707219793457227 C41.82429307092549,7.501124751295975 34.445123350745185,0 25.343656563073516,0 C16.239735778155364,0 8.861384057057222,7.520565217979783 8.861384057057222,16.726660260141045 C8.861384057057222,22.36150020979117 11.629083951551184,27.105387707591756 15.862229201737758,30.414403313346803 L5.424151913813943,30.414403313346803 L5.221288141437854,30.414403313346803 L4.907994492969938,30.414403313346803 L4.907994492969938,30.2692202536443 C2.453997246484969,30.37345424522558 0,32.833293721153744 0,35.59714900586065 L0,76.90814070895881 C0,79.73238552847076 2.4278212758557958,82.11818578022014 5.221288141437854,82.11818578022014 L5.423742914272866,82.11818578022014 C7.548904529728849,82.11818578022014 9.406989444859054,80.66883694489943 10.22498852702071,78.80586115885934 L10.22498852702071,114.53619804285161 C10.22498852702071,118.70473045220152 13.703120624372074,122.24000000000008 17.82542699892574,122.24000000000008 L18.029926769466154,122.24000000000008 C22.152233144019824,122.24000000000008 25.494168394191266,118.85984055872129 25.494168394191266,114.69130814937138 C25.494168394191266,118.85984055872129 28.83610364436271,122.24000000000008 32.958410018916375,122.24000000000008 L33.16290978945679,122.24000000000008 C37.285216164010464,122.24000000000008 40.49095456700199,118.70473045220152 40.49095456700199,114.53619804285161 L40.49095456700199,97.36116616813075 C37.21895823835537,94.84714156165836 33.77477310291371,92.08494078475434 31.520776632017274,89.83522379979162 C28.039781537878333,86.36075741374881 25.743658114250568,83.0136881285276 24.715433267973363,77.07524599704945Z"/>
    <path id="path-2" opacity="1" fill-rule="evenodd" d="M72.6793986808807,48.09881907691488 C75.62693896408382,48.09881907691488 77.6316691886932,47.57287913550863 77.6316691886932,47.57287913550863 C77.6316691886932,50.49579173316488 77.63990893478694,53.14837962378988 77.64738574142757,55.56256419410238 C77.71168627853694,76.29291087378988 77.72145190353694,79.43963938941488 71.99882617111507,85.18866282691488 C66.8465129386932,90.36444407691488 54.137528563693195,98.99194651832113 54.137528563693195,98.99194651832113 C54.137528563693195,98.99194651832113 41.428544188693195,90.36481028785238 36.276627684786945,85.18866282691488 C30.55369677658382,79.43933421363363 30.56346240158382,76.29254466285238 30.627701903536945,55.55920726050863 C30.63517871017757,53.14593821753988 30.643387938693195,50.49444895972738 30.643387938693195,47.57287913550863 C30.643387938693195,47.57287913550863 32.647294188693195,48.09881907691488 35.595658446505695,48.09881907691488 C40.78007617111507,48.09881907691488 48.882767821505695,46.47204905738363 54.137528563693195,37.49695140113363 C59.39268603439632,46.47247630347738 67.49498095627132,48.09881907691488 72.6793986808807,48.09881907691488 L72.6793986808807,48.09881907691488ZM66.63835253830257,80.23962718238363 C68.7492228996307,78.11877757300863 69.52531542892757,76.70349436988363 69.95951953049007,74.18323069800863 C70.47694506759944,71.17737132300863 70.46244921799007,66.47290354957113 70.43846240158382,58.67334300269613 L70.42625537033382,54.97247630347738 L67.53196826095882,54.83179026832113 C63.092362548068195,54.61658030738363 59.26707568283382,53.08252269019613 56.163407469943195,50.27307444800863 L54.13713183517757,48.43896800269613 L52.11125292892757,50.27307444800863 C49.00718798752132,53.08252269019613 45.18229785080257,54.61621409644613 40.742264891818195,54.83179026832113 L37.848405028536945,54.97247630347738 L37.83580126877132,58.65637522925863 L37.835770751193195,58.66644603003988 C37.81260790939632,66.46771556128988 37.798600341036945,71.17602854957113 38.315934325411945,74.18323069800863 C38.74974169845882,76.70263987769613 39.52543749924007,78.11792308082113 41.637101317599445,80.24048167457113 C44.206132079318195,82.82110911597738 49.477982665255695,86.68127757300863 52.391373778536945,88.75293284644613 L54.137528563693195,89.99444895972738 L55.88328662033382,88.75293284644613 C58.796281005099445,86.68213206519613 64.06688037033382,82.82275706519613 66.63835253830257,80.23962718238363 L66.63835253830257,80.23962718238363Z"/>
    <path id="path-3" opacity="1" fill-rule="evenodd" d="M50.792532308806926,72.13185426317796 L50.792532308806926,78.74355828220888 L57.13207429514452,78.74355828220888 L57.13207429514452,72.13185426317796 L63.47161628148212,72.13185426317796 L63.47161628148212,65.52015024414703 L57.13207429514452,65.52015024414703 L57.13207429514452,58.495214723926665 L50.792532308806926,58.495214723926665 L50.792532308806926,65.52015024414703 L44.056768948323224,65.52015024414703 L44.056768948323224,72.13185426317796 L50.792532308806926,72.13185426317796Z"/>
  </defs>
  <g opacity="1">
    <g opacity="1">
      <use xlink:href="#path-1" fill="rgb(67,67,67)" fill-opacity="1"/>
    </g>
    <g opacity="1">
      <use xlink:href="#path-2" fill="rgb(1,189,174)" fill-opacity="1"/>
    </g>
    <g opacity="1">
      <use xlink:href="#path-3" fill="rgb(1,189,174)" fill-opacity="1"/>
    </g>
  </g>
</svg>