<?xml version="1.0" encoding="utf-8"?>
<svg version="1.1" xmlns="http://www.w3.org/2000/svg" xmlns:xlink="http://www.w3.org/1999/xlink" height="81.7447294482302" width="115.74235910152447">
  <defs>
    <path id="path-1" opacity="1" fill-rule="evenodd" d="M27.27322954122154,51.7465974014036 C21.359131109167258,51.76697658057063 16.44332132850285,47.22867362868956 16.034604704366796,41.371036395605586 L15.70726611688559,36.652683826843614 C15.495200648129895,33.565469186189254 16.5853737700714,30.529674086980542 18.716825618753102,28.271991070196535 C20.848277467434805,26.014308053412538 23.829147538731526,24.737960195391064 26.94589095374031,24.748472881676317 L27.600568128702722,24.748472881676317 C30.713251112058646,24.747757658025098 33.68651874770478,26.030116103554473 35.81035921171416,28.289322956897895 C37.93419967572354,30.548529810241316 39.01795353781282,33.58177365554623 38.802822011392884,36.66472044053946 L38.475483423911676,41.38307300930143 C38.061635567712216,47.222052253046975 33.16897344587686,51.74839344946507 27.27322954122154,51.7465974014036 L27.27322954122154,51.7465974014036Z"/>
    <path id="path-2" opacity="1" fill-rule="evenodd" d="M27.202080800663225,20.9986572265625 C34.745049550663225,21.002410888671875 41.047783925663225,26.8463134765625 41.754754140506975,34.491943359375 C41.8282709862101,35.290740966796875 41.83626659167885,36.0943603515625 41.7785883690226,36.894500732421875 L41.456780507694475,41.639007568359375 C41.3540278221476,43.17547607421875 41.016228749881975,44.686187744140625 40.455620839725725,46.116546630859375 C39.325921132694475,48.970367431640625 37.3620844627726,51.40179443359375 34.830010488163225,53.08160400390625 C32.990471913944475,54.310943603515625 30.89901073230385,55.095428466796875 28.715752675663225,55.374969482421875 C28.107415273319475,55.45843505859375 27.494134023319475,55.498992919921875 26.8802729393351,55.496307373046875 C19.185540273319475,55.5091552734375 12.79500682605385,49.4537353515625 12.2561274315226,41.639007568359375 L11.981988027225725,36.88238525390625 C11.70443065417885,32.7708740234375 13.11592967761635,28.726593017578125 15.879448964725725,25.7152099609375 C18.642998769413225,22.703826904296875 22.510491445194475,20.995697021484375 26.5584955955851,20.9986572265625 L27.202080800663225,20.9986572265625 L27.202080800663225,20.9986572265625ZM34.2817621971476,41.141510009765625 L34.603570058475725,36.397003173828125 L34.6393061424601,36.397003173828125 C34.7812739158976,34.2978515625 34.061638906131975,32.2327880859375 32.65194041980385,30.694091796875 C31.24227245105385,29.155426025390625 29.2688227440226,28.280975341796875 27.202080800663225,28.279205322265625 L26.5584955955851,28.279205322265625 C24.4864741112101,28.270599365234375 22.5045405174601,29.1409912109375 21.08883006824135,30.68133544921875 C19.6731196190226,32.2216796875 18.951531484256975,34.292724609375 19.097405507694475,36.397003173828125 L19.40731151355385,41.141510009765625 C19.71798045886635,45.0887451171875 22.9549799705851,48.130828857421875 26.844536855350725,48.130828857421875 C30.734063222538225,48.130828857421875 33.9710932518351,45.0887451171875 34.2817621971476,41.141510009765625 L34.2817621971476,41.141510009765625Z"/>
    <path id="path-3" opacity="1" fill-rule="evenodd" d="M49.237632421752764,78.7449230799158 L5.229057693433478,78.7449230799158 C5.229057693433478,78.7449230799158 5.189820002299696,76.00180971336275 5.46038747829732,72.51847855339693 C5.842960842122649,67.59316476883322 6.844928122234152,61.18793248513045 9.453014414691356,58.964858092066905 C12.47356466265639,56.343999481176915 20.789103393109944,55.25609590684523 28.79175644050735,55.54043434104557 C31.30584415683399,55.60373217718469 33.813715708046416,55.82668339415186 36.3010128338547,56.208011534385456 C35.741856721614624,57.32495571136465 35.305926443411465,58.50258068589861 35.00133384269842,59.71897306972864 C33.800821996810186,64.75596555059586 33.14301933877807,69.91328209440331 33.03978129123108,75.09797359778115 L49.27373461595155,75.09797359778115 C49.30983681015033,77.23669312459232 49.237632421752764,78.7449230799158 49.237632421752764,78.7449230799158Z"/>
    <path id="path-4" opacity="1" fill-rule="evenodd" d="M50.76539462803912,74.48059356344626 L7.193464280523555,74.48059356344626 C7.467127414874418,68.75843013845086 8.526084760840797,62.81942683629775 10.037181198343387,61.53043423319352 C12.024213521673563,59.83185519545804 18.18758324314081,58.98858900651135 24.56512411323047,58.98858900651135 L25.754963827799436,58.98858900651135 C28.173484684443267,59.01901585048461 30.58852992891103,59.18390183267283 32.989189292378754,59.48250206003728 C33.290348028961375,58.29719025916965 33.72136379071804,57.14965530427585 34.27421618411322,56.06125066488213 C34.57216644584647,55.47649224251691 34.97575002821291,54.95346820691633 35.46405589868219,54.51927820509389 C36.23645535311029,53.90662155712062 37.10530532435141,53.43013013324941 38.03410968215116,53.10981900356871 C36.57060683323134,52.78455918783213 34.976221615708916,52.507486011463925 33.274750823875294,52.2906461343062 C31.57328003204167,52.07380625714847 30.12167558026753,51.95333965872752 28.515391965599427,51.85696637999076 C24.745814652567443,51.64129008942654 20.96507066308939,51.74202311084379 17.211914677194237,52.15813287604315 C12.155095890276128,52.748419208305826 7.776485740662331,54.00127183188378 5.444399900107153,55.98897070582955 C0.16151156742093903,60.5064681466154 -0.05265958120147468,74.05896046897294 0.006832404526974506,78.13073149560124 L0.006832404526974506,81.74472944822992 L50.53932508227101,81.74472944822992 L50.70590264231067,78.29938473339058 C50.70590264231067,77.55249182318065 50.77729302518481,76.50443241691833 50.77729302518481,75.23953313349828 C50.77729302518481,75.02269325634057 50.77729302518481,74.73357342013028 50.76539462803912,74.48059356344626Z"/>
    <path id="path-5" opacity="1" fill-rule="evenodd" d="M89.96822057074591,51.746633332900956 C84.06524253105314,51.747988420167346 79.16847943490257,47.216808000966054 78.7604983784573,41.37565757925096 L78.43300000270861,36.65939018315956 C78.21776346119053,33.57780583903677 79.30204635089413,30.545902469475735 81.4269235542344,28.287694023165088 C83.55180075757467,26.029485576854437 86.52651977506959,24.74769384157943 89.64072219499721,24.74840874915319 L90.31997808543896,24.74840874915319 C93.43418050536657,24.747693841579405 96.40889952286147,26.02948557685442 98.53377672620176,28.28769402316507 C100.65865392954204,30.545902469475703 101.74293681924563,33.577805839036756 101.52770027772755,36.65939018315954 L101.20020190197887,41.37565757925094 C100.79159094298316,47.22606730691032 95.88053801924963,51.760655577218756 89.96822057074591,51.746633332900956 L89.96822057074591,51.746633332900956Z"/>
    <path id="path-6" opacity="1" fill-rule="evenodd" d="M90.64632518542885,20.9986572265625 C94.70641429675698,20.993499755859375 98.5871821190226,22.6688232421875 101.36528880847573,25.62603759765625 C104.10167796863198,28.56805419921875 105.50951488269448,32.50262451171875 105.25988109363198,36.510467529296875 L104.93828685535073,41.16162109375 C104.38988597644448,48.79901123046875 98.03862865222573,54.722381591796875 90.37239940417885,54.746368408203125 C89.86699779285073,54.748565673828125 89.36190135730385,54.72076416015625 88.85982616199135,54.6630859375 C86.48262889636635,54.42681884765625 84.20024974597573,53.609771728515625 82.21404369128823,52.283966064453125 C78.47762401355385,49.779754638671875 76.1084223533976,45.6925048828125 75.79454906238198,41.209228515625 L75.47298534167885,36.55804443359375 C75.40129955066323,35.73486328125 75.40129955066323,34.906982421875 75.47298534167885,34.083770751953125 C76.25280101550698,26.65228271484375 82.52190501941323,21.00665283203125 90.00316722644448,20.9986572265625 L90.64632518542885,20.9986572265625 L90.64632518542885,20.9986572265625ZM90.0508051658976,28.112213134765625 C87.9789057518351,28.10577392578125 85.99959666980385,28.96905517578125 84.59603221667885,30.4913330078125 C83.20467479480385,32.011993408203125 82.50615794910073,34.040374755859375 82.66661937488198,36.094146728515625 L82.9881830955851,40.74530029296875 C83.25920970691323,44.64862060546875 86.50853832019448,47.676727294921875 90.42598827136635,47.676727294921875 C94.34343822253823,47.676727294921875 97.59273631824135,44.64862060546875 97.86376292956948,40.74530029296875 L98.14962108386635,36.070343017578125 C98.29146678699135,34.012481689453125 97.57235057605385,31.988037109375 96.16368968738198,30.4796142578125 C94.7550287987101,28.97119140625 92.78301341785073,28.113922119140625 90.71776683581948,28.112213134765625 L90.0508051658976,28.112213134765625 L90.0508051658976,28.112213134765625Z"/>
    <path id="path-7" opacity="1" fill-rule="evenodd" d="M111.96269946446314,78.74492307991581 L67.95196566605682,78.74492307991581 C67.95196566605682,78.74492307991581 67.95196566605682,77.23784713876759 68.03611620869239,75.03899863446938 L84.31323545563097,75.03899863446938 C84.38530217926923,69.81418000766527 83.79119712942698,64.60216016682682 82.5460740602839,59.53588137101848 C82.21912604149527,58.29788561394593 81.7254811214276,57.112891680757414 81.07945031720674,56.01525314784438 C83.62655047500951,55.67317433857159 86.19243264076337,55.49987314022739 88.76119270922574,55.49642372548186 C96.46697811342635,55.49642372548186 104.47330116989687,56.731731873964 107.75517233268435,58.96763962271669 C112.75611886645572,62.4265024384667 111.96269946446314,78.74492307991581 111.96269946446314,78.74492307991581Z"/>
    <path id="path-8" opacity="1" fill-rule="evenodd" d="M109.95205640979874,55.761317090916094 C107.56927090484857,54.108704512943945 103.24451521336402,52.92654369074491 98.26449350801816,52.2872118175148 C94.6328689282188,51.83698698507676 90.97263926281747,51.66761653234951 87.31559411277215,51.780571465143794 C85.55233283910903,51.780571465143794 83.8128994204954,51.96151444813346 82.15686349455504,52.15452029665575 C80.37121570330713,52.35046572131198 78.6001824091833,52.66477474543039 76.85516574604091,53.09542380820193 C78.11733984078326,53.467969470802316 79.32077887067715,54.020348622661736 80.42934400346616,54.735973520641444 C80.84406106639666,55.042472148975094 81.19607518510273,55.42756390060318 81.46585569811948,55.869882880709916 C82.12470562515844,56.96227305998699 82.62617687090123,58.14429229671967 82.95509663871331,59.380176750709104 C85.11968119772507,59.14306203848972 87.29483127597746,59.01824923806974 89.47201499475206,59.00622791919716 L90.17493671871236,59.00622791919716 C94.2804171407202,59.00622791919716 98.41426692771257,59.39878945996782 101.55778638584043,60.129626508365824 C103.40419686366371,60.5588986034548 104.90893935713703,61.1048771221252 105.86557926880923,61.75656126063984 C107.31907842682884,62.757779099849245 108.42707368663066,68.3911373035937 108.53429903435341,74.50701012864388 L64.96506607633955,74.50701012864388 C64.96506607633955,76.03899405128959 64.96506607633955,77.31765779774979 64.96506607633955,78.1258697884369 L64.96506607633955,81.74472944822992 L115.50394663633264,81.74472944822992 L115.67074162167916,78.29474990589391 C115.67074162167916,77.53478937733738 115.74222518682767,76.44913147939947 115.74222518682767,75.15840486740663 C115.7541391143524,69.33204081513989 114.9797338252436,59.25954809538268 109.95205640979874,55.761317090916094Z"/>
    <path id="path-9" opacity="1" fill-rule="evenodd" d="M59.089654042850725,0.00006103515625 C64.04866893542885,0.01971435546875 68.77816112292885,2.098968505859375 72.1538325096476,5.743621826171875 C75.5001459862101,9.378387451171875 77.20641429675698,14.235504150390625 76.87114818347573,19.17205810546875 L76.44750316394448,25.294677734375 C76.41314037097573,25.719696044921875 76.3788080955851,26.144744873046875 76.31011302722573,26.558258056640625 C76.08355052722573,28.2041015625 75.6247797752726,29.809234619140625 74.94756419910073,31.325408935546875 C72.94353587878823,35.84149169921875 69.17534740222573,39.331146240234375 64.52828319324135,40.974609375 C60.6002436424601,42.376617431640625 56.30391795886635,42.3359375 52.4029780174601,40.859710693359375 C47.93587596667885,39.1787109375 44.313469960819475,35.79229736328125 42.3271723533976,31.440277099609375 C41.613762929569475,29.8690185546875 41.135369374881975,28.20074462890625 40.907403066288225,26.489349365234375 C40.850152089725725,26.12176513671875 40.78145702136635,25.731201171875 40.78145702136635,25.34063720703125 L40.369256093631975,19.217987060546875 C40.012566640506975,14.24359130859375 41.7369623924601,9.344879150390625 45.12825877917885,5.69842529296875 C48.519524648319475,2.051971435546875 53.27132518542885,-0.012786865234375 58.242364003788225,0.00006103515625 L59.089654042850725,0.00006103515625 L59.089654042850725,0.00006103515625ZM69.76082713855385,24.832916259765625 L70.1898432518351,18.658416748046875 L70.1666498924601,18.658416748046875 C70.37511546863198,15.579559326171875 69.29784496081948,12.552001953125 67.19100291980385,10.2955322265625 C65.0841303612101,8.039093017578125 62.135918691288225,6.755340576171875 59.04732616199135,6.74957275390625 L58.18929393542885,6.74957275390625 C55.099602773319475,6.751922607421875 52.149285390506975,8.03460693359375 50.041680410038225,10.2918701171875 C47.934075429569475,12.54913330078125 46.85799510730385,15.578704833984375 47.0699702049601,18.658416748046875 L47.52217967761635,24.832916259765625 C47.900994374881975,30.690399169921875 52.766594960819475,35.24774169921875 58.6415034080851,35.24774169921875 C64.51641185535073,35.24774169921875 69.38201244128823,30.690399169921875 69.76082713855385,24.832916259765625 L69.76082713855385,24.832916259765625Z"/>
    <path id="path-10" opacity="1" fill-rule="evenodd" d="M85.02605541003823,56.37310791015625 C85.41365916980385,57.50982666015625 85.73653514636635,58.673370361328125 85.99263866199135,59.85662841796875 C86.96895702136635,64.7518310546875 87.42803294910073,69.76046752929688 87.3602534080851,74.7777099609375 C87.3602534080851,76.31045532226562 87.29857738269448,77.51806640625 87.29857738269448,78.26119995117188 C87.29381664050698,78.31527709960938 87.29381664050698,78.36972045898438 87.29857738269448,78.42376708984375 L87.15459544910073,81.74472045898438 L29.86898143542885,81.74472045898438 L29.86898143542885,74.7777099609375 C29.9459467674601,69.75479125976562 30.483513906131975,64.75442504882812 31.47310741199135,59.85662841796875 C31.72701366199135,58.675323486328125 32.042901113163225,57.5120849609375 32.419121816288225,56.37310791015625 C32.501397206913225,56.094451904296875 32.593926503788225,55.827362060546875 32.696770742069475,55.560302734375 C33.000603749881975,54.664825439453125 33.368584706913225,53.798828125 33.7970209862101,52.97088623046875 C34.096612050663225,52.3994140625 34.440728261600725,51.859283447265625 34.825310781131975,51.356842041015625 C35.1324702049601,50.93157958984375 35.476983144413225,50.54254150390625 35.85360057605385,50.1956787109375 C36.605706288944475,49.499664306640625 37.435418203006975,48.917999267578125 38.321465566288225,48.465545654296875 C39.770501210819475,47.722198486328125 41.278496816288225,47.1351318359375 42.8253412987101,46.712158203125 C46.165703847538225,45.833984375 49.569390370975725,45.29766845703125 52.995049550663225,45.1097412109375 C56.61458690417885,44.910003662109375 60.241753652225725,44.9759521484375 63.85372264636635,45.307159423828125 C67.41887767566323,45.57427978515625 70.95812328113198,46.176300048828125 74.43474681628823,47.106964111328125 C76.01867015613198,47.5361328125 77.56682689441323,48.118896484375 79.06200511706948,48.848724365234375 C79.73754222644448,49.173553466796875 80.38762767566323,49.561981201171875 81.00548656238198,50.0098876953125 C81.53698070300698,50.419647216796875 82.02068431628823,50.903411865234375 82.44506175769448,51.449737548828125 C82.8301020408976,51.901763916015625 83.17455394519448,52.395751953125 83.47335155261635,52.9244384765625 C83.97661693347573,53.78240966796875 84.4070063377726,54.692169189453125 84.75872142566323,55.641571044921875 L85.02605541003823,56.37310791015625 L85.02605541003823,56.37310791015625ZM38.251763417850725,58.516448974609375 C37.234429433475725,63.176727294921875 36.6770258690226,67.9483642578125 36.589531972538225,72.74530029296875 L81.38805492175698,72.74530029296875 C81.44921214831948,67.90753173828125 80.9452143455851,63.08160400390625 79.88900096667885,58.390625 C79.6152582908976,57.228515625 79.19640453113198,56.115631103515625 78.64489085925698,55.085052490234375 C78.4139643455851,54.665618896484375 78.11266429675698,54.30047607421875 77.75768382800698,54.009857177734375 C76.80880077136635,53.331298828125 75.7787104393351,52.80755615234375 74.69835765613198,52.45428466796875 C70.60909374011635,50.990234375 64.29671581042885,50.24676513671875 58.1678705955851,50.24676513671875 C52.039055898319475,50.24676513671875 46.0530024315226,50.978790283203125 42.5755854393351,52.465728759765625 C41.779534413944475,52.769866943359375 41.03487499011635,53.2222900390625 40.37288768542885,53.803985595703125 C39.9543696190226,54.21624755859375 39.60848338855385,54.71282958984375 39.35311229480385,55.268035888671875 C38.879265859256975,56.30145263671875 38.509881093631975,57.391021728515625 38.251763417850725,58.516448974609375 L38.251763417850725,58.516448974609375Z"/>
  </defs>
  <g opacity="1">
    <g opacity="1">
      <use xlink:href="#path-1" fill="rgb(64,64,64)" fill-opacity="1"/>
    </g>
    <g opacity="1">
      <use xlink:href="#path-2" fill="rgb(64,64,64)" fill-opacity="1"/>
    </g>
    <g opacity="1">
      <use xlink:href="#path-3" fill="rgb(64,64,64)" fill-opacity="1"/>
      <use xlink:href="#path-3" fill-opacity="0" stroke="rgb(64,64,64)" stroke-opacity="1" stroke-width="1"/>
    </g>
    <g opacity="1">
      <use xlink:href="#path-4" fill="rgb(64,64,64)" fill-opacity="1"/>
    </g>
    <g opacity="1">
      <use xlink:href="#path-5" fill="rgb(64,64,64)" fill-opacity="1"/>
    </g>
    <g opacity="1">
      <use xlink:href="#path-6" fill="rgb(64,64,64)" fill-opacity="1"/>
    </g>
    <g opacity="1">
      <use xlink:href="#path-7" fill="rgb(64,64,64)" fill-opacity="1"/>
      <use xlink:href="#path-7" fill-opacity="0" stroke="rgb(64,64,64)" stroke-opacity="1" stroke-width="1"/>
    </g>
    <g opacity="1">
      <use xlink:href="#path-8" fill="rgb(64,64,64)" fill-opacity="1"/>
    </g>
    <g opacity="1">
      <use xlink:href="#path-9" fill="rgb(229,1,77)" fill-opacity="1"/>
    </g>
    <g opacity="1">
      <use xlink:href="#path-10" fill="rgb(229,1,77)" fill-opacity="1"/>
    </g>
  </g>
</svg>