<?xml version="1.0" encoding="utf-8"?>
<svg version="1.1" xmlns="http://www.w3.org/2000/svg" xmlns:xlink="http://www.w3.org/1999/xlink" height="92.49462932056952" width="91.39654302436338">
  <defs>
    <path id="path-1" opacity="1" fill-rule="evenodd" d="M78.26302819847666,46.50111948010276 C78.6285550501083,46.67301620357069 79.04700769628408,46.69159010611714 79.42615542722821,46.55274714513315 C79.80530331014528,46.413904184149146 80.11402237027697,46.12904195037106 80.28426839234778,45.76094667268588 C81.70083892900884,42.706345100507775 82.44821011955453,39.3809679759172 82.47571828675544,36.010240432830535 C82.52561921176434,32.79420105422417 82.2573311864009,29.581147141226566 81.67482085655236,26.418579589610218 C81.5732897063717,25.88178088357935 81.19488132381427,25.440265051246392 80.68213843048619,25.260346781442205 C80.16939568913105,25.080428664566284 79.60021612223936,25.189442049698318 79.18900422711897,25.546322638853272 C78.77779248397155,25.90320338093649 78.58702129963727,26.453732598401476 78.68855244981795,26.99053130443235 C79.2336851853475,29.948834253369796 79.48416122146863,32.95448578152682 79.43625934860334,35.962832670372016 C79.41560956852344,38.90509757326974 78.76508921731248,41.808330594837514 77.52899886491292,44.474819955666064 C77.1781501683854,45.23844507731464 77.50612982388931,46.14383791303436 78.26302819847666,46.50111948010276Z"/>
    <path id="path-2" opacity="1" fill-rule="evenodd" d="M2.4498039041505564,57.918743819305206 C2.9494636288469,58.26804467188437 3.4771057371276783,58.57495732647977 4.027283093051472,58.836313415276535 C4.683806223692314,59.17428488312597 5.785610088772435,59.7401194673083 5.863116291695312,60.13620367623592 C5.958633203685872,60.65901831576766 5.896167292202304,61.19864328908239 5.68378821434434,61.68536701076752 C5.457348523452013,62.174737461952226 5.220270726276153,62.595290193439084 5.015107247950889,62.95773018384776 C4.458886262269061,63.94717606483684 3.527292097725458,65.60491846822505 4.931522127151707,66.75952687648896 C5.259783692472129,67.0653834084794 5.826642784437486,67.5073460972056 6.343350803923336,67.90648887145313 C5.962970192447426,68.57576260547197 5.790913610279026,69.34449598998957 5.849438726473627,70.11324374976418 C5.930077593342996,70.71868721362405 6.256337036666267,71.26347198663346 6.7506383016357105,71.61805788715716 C7.088018243770589,71.8566259821097 7.448194127941607,72.0646084238632 7.802291094236321,72.26800301763686 C8.701970939929328,72.78184199138079 9.053028447285893,73.0219393689933 9.170047616404746,73.50213412421829 C9.254484104849798,74.1176401150524 9.202586969591383,74.74432057428277 9.018074669497144,75.33727331616096 C8.928410630821658,75.7455917863682 8.841786051084325,76.15543953923539 8.79011524913574,76.56069944412272 C8.639203407738036,77.95441716047256 8.810316587443916,79.36437677624066 9.290106244461752,80.680586930034 C9.973702686913219,83.110391660434 12.157776118423847,84.80315953043961 14.666909106052731,84.8478821784038 C15.085735757650852,84.8466350483946 15.50332474156936,84.80205141222422 15.913087270695073,84.71483458698795 C20.25461667995725,83.67923235554099 24.532756501361852,82.39093940963335 28.725926424475052,80.8564544359285 C32.14987691830334,82.87816611238533 34.31245195279853,89.02588240539323 34.876271585825734,91.33356993926112 C35.044614906601275,92.01576335904777 35.65340834972569,92.49462932056953 36.35192890029855,92.49429547816487 L74.49713857410681,92.3872456919682 C74.98055691957256,92.38630258335182 75.43469281368225,92.15397916121292 75.72030925037093,91.76150497693237 C76.0059256870596,91.36903079265184 76.08894774809049,90.86322942271207 75.94392102866719,90.39917823403033 C75.5681800752739,89.36301353242104 75.04997785777405,88.38495469011795 74.40443507649317,87.49354118012113 C74.0400164115904,86.96489615044833 73.7115132092844,86.41207560877393 73.42117011000099,85.83885734205282 C72.73281837325162,84.43733661385885 72.15899816045315,82.9817493206484 71.70539553941417,81.48651889182881 C70.83723777039579,78.53124667526686 70.23552398700306,75.50325355087406 69.90755557749723,72.4392826755515 C69.37559388135732,67.86053453923464 70.0686683294048,63.22190458765854 71.91511820614666,59.00300522521132 C72.21798645979534,58.2863263285145 72.57780946278363,57.59539902252861 72.99108667025247,56.93694435161588 C73.2788486610056,56.47253821642877 73.29854161941178,55.88892526253971 73.04274759395952,55.40594644823227 C72.7869534165343,54.92296778685309 72.29453356145028,54.61399931757791 71.7509775452449,54.59542663845758 C71.20742152903951,54.576853959337264 70.69530856357635,54.851498596879416 70.40754657282324,55.31590473206653 C69.91505285888701,56.10699837006837 69.4841876702996,56.935287832638615 69.11881598304676,57.79334264118911 C67.06214603211718,62.51072285041117 66.2930724968613,67.69474577071053 66.89089258138131,72.81089836191988 C67.24233625199597,76.05888705507316 67.88320130597103,79.26851216341889 68.80575171241709,82.40102992248023 C69.30581595870352,84.04490050871654 69.93651250280098,85.64561703221298 70.69173598354044,87.18768464813067 C71.03847168423285,87.88024843949098 71.43199149676602,88.54807210769164 71.86952632207436,89.18645708468823 L71.97134819650245,89.33938535068344 L37.500844378920036,89.43573015826044 C36.49198747211449,85.8080008528947 34.66087668082287,82.46510870107144 32.15139664777242,79.66973109180557 L33.519153169940836,79.18800705392063 C34.53737191422178,78.83015491149182 35.304835296105175,78.56100116334024 35.698445228595865,78.43407070256418 C42.20896627411756,76.36189269832894 45.464226796878414,73.37826222876217 45.376082487672,69.56423127484135 C45.35627570152859,68.73399916450815 44.681636483778675,68.07141221891996 43.8289978881526,68.07165139872798 C42.990176368913474,68.09168653085601 42.3262073237389,68.79200424408707 42.3457419263344,69.6361075598591 C42.38221543359223,71.20973941694993 41.10108349116114,73.5051926895382 34.78356808821209,75.51619938737537 C34.37172140209249,75.64924697879123 33.57842261923481,75.92757642290252 32.52525009716512,76.29766282661095 C31.396091101641634,76.69527631819852 29.959946753364786,77.19993959598277 28.36575054030403,77.74130565760585 C24.08892741251144,79.31887159433941 19.725097948938878,80.64646221090331 15.296077106250205,81.71744057348162 C13.878736355496944,81.99311977074323 12.498033485940883,81.09319442638936 12.168473858891744,79.67890678776531 C11.84380522278482,78.8089064465014 11.7216312984771,77.87559410897198 11.811337433658878,76.95066652241056 C11.850850399854856,76.6295171638206 11.923797414370505,76.31142637055054 11.993704969948002,75.99180629462052 C12.303372614819686,74.93453504545164 12.34878919809771,73.81667269972583 12.125921433757615,72.7374927942422 C11.68390202356168,71.33265566367187 10.656655843077717,70.19066995448318 8.996798456930076,69.42812511810561 C9.160895486398779,69.09473583989019 9.356851364592456,68.77821118499217 9.581894302524345,68.48302843425513 C9.836842689710839,68.15795845370985 9.949884772401006,67.74274230699316 9.89517711025166,67.33230562737363 C9.84046946329961,66.92186894775408 9.622689662038216,66.55130449028614 9.291625973930826,66.30532992648318 C8.926890901352579,66.03617617833159 8.066724021855547,65.38776033051184 7.437556021658073,64.8769799220878 C7.510503036173723,64.74393233067195 7.589528968565675,64.59712119531655 7.665515442019478,64.4640736039007 C7.904112968664414,64.04352087241385 8.176144543629023,63.55415042122914 8.442097200717328,62.988315837046805 C8.923009922615517,61.916358121853065 9.064669301467708,60.72150189961626 8.847864968960627,59.56578124407375 C8.48312989638238,57.700056398932055 6.706566147032507,56.78554536828062 5.411756639379731,56.118778128541464 C4.974531580529071,55.90969827355118 4.555184968690399,55.66469266324157 4.157979827392009,55.38625173442435 C3.8348376531557054,55.166484793421525 3.5317276105484936,54.91827594765237 3.252221063822697,54.64454964434752 C3.252221063822697,54.41209868003479 3.4999369672820886,53.849322661172366 4.657970822718021,52.43167763539666 C7.379913351576987,48.90552634287028 9.713686153920301,45.092639139450824 11.618331791086222,41.05993177599198 C11.97446645624496,40.428119961724406 12.17509118652435,39.71968405149299 12.203427636680491,38.99387090239654 C12.046452226674122,37.45669729684724 11.236946440866422,36.06279866635873 9.983102882360418,35.170664252516 C9.375211094730005,34.60330038567373 8.790115249135736,34.06805145469045 8.721727423027316,33.569505307546024 C8.731809657862945,33.20855652065907 8.812365395530353,32.85313027931373 8.958805220203175,32.523475968138705 C9.206521123662569,31.867413707019207 9.49223026384886,31.225114989839277 9.77945913350423,30.58128698999939 C10.402625022952767,29.288277583440195 10.90036283697334,27.937781218267272 11.265754554260583,26.5485686157054 L11.417727501168185,25.897094202565754 C11.738521100680273,24.368223990146927 12.152156797133577,22.86058190325916 12.656307018465144,21.38265179038681 C13.854305762049274,18.055324218691734 15.70913744832381,15.00640957464837 18.109096353509926,12.419526120406871 C21.016338827852366,9.324258016663585 25.592244259240278,7.13432524761201 31.728911855369272,5.906311271670379 C33.29879239692481,5.586691195740365 34.870192667949425,5.283893229069827 36.45679023366479,4.98874167569905 C37.23737222427115,4.795995630014918 37.733843678119726,4.024960598629948 37.58971207935372,3.2292798467039345 C37.445580632560656,2.4335990947779127 36.710688700550286,1.8884292025162495 35.91272708373558,1.9852305315528878 C34.309919019692416,2.2768137638147197 32.71622948443665,2.582670295805163 31.131658174022398,2.902800127524218 C24.279197997958594,4.279154521481213 19.299044527796458,6.696950406865668 15.899409705473388,10.312174614992706 C13.217712014128116,13.199721646681903 11.144245693963125,16.603354596541656 9.803774805009448,20.318271059060056 C9.256294330606886,21.91830353442271 8.806627201001017,23.550549737304188 8.305321548500485,25.851215722767172 C7.980966751726219,27.05064006523753 7.545953218396251,28.2169442743565 7.005952852440482,29.33492162213832 C6.702006958625277,30.032274515076534 6.385903229057463,30.729627408014746 6.113871654092855,31.45144882351219 C5.7640982877430735,32.25494203824918 5.625921992058352,33.13555973023635 5.712663074256784,34.0084094309523 C6.018449709996818,35.37894215167938 6.804487027886428,36.5928254029148 7.926908910700554,37.42788545860546 C8.67005662107873,38.11300409026405 9.157889780652136,38.596257410808946 9.16396869852844,39.01681014229581 C9.10959271733572,39.249264623958666 9.022601670034215,39.472743592762 8.905614688785516,39.68051881671508 C7.085704957164644,43.53618754961842 4.856452460894714,47.18232773599906 2.256798261577899,50.55524781163529 C1.1549943964977802,51.904075117713134 0,53.47770697480397 0.2431567150521641,55.052868114554755 C0.5655205598408801,56.268033057587466 1.3610002152758685,57.30115968626451 2.4498039041505564,57.918743819305206Z"/>
    <path id="path-3" opacity="1" fill-rule="evenodd" d="M59.20714038573258,2.6581149019324797 C58.694326976957136,2.478362436954285 58.125169902061586,2.58756681419772 57.714065451814676,2.944591813514251 C57.30296100156777,3.3016168128307815 57.11236549796013,3.8522218368372227 57.21407445648867,4.388999285839121 C57.31578341501721,4.925776750133846 57.69434498630511,5.367177381604025 58.207158395080555,5.546929846582219 C60.836367274893206,6.4845821047866545 63.3465550459574,7.730883242775995 65.68574711240366,9.260028144946205 C66.3932966796982,9.714422647686025 67.33293750783466,9.505594267936345 67.78449350919765,8.793596903075125 C68.23604951056063,8.08159955350673 68.028525588424,7.13605211359224 67.32097602112947,6.681657580266766 C64.78280759897244,5.024423541020383 62.059417892529254,3.6739309837612772 59.20714038573258,2.6581149019324797Z"/>
    <path id="path-4" opacity="1" fill-rule="evenodd" d="M17.18358110684326,27.95856722818211 L17.33555405375086,27.2933292711029 C17.602156851106034,26.015634406956995 17.941617758802916,24.75443943221412 18.352253068562717,23.516001101020926 C19.268804342929617,20.963484283134107 20.687075152920652,18.62298216659029 22.52239073170732,16.634229131235955 C24.49214720232748,14.765668093765935 26.90292612541457,13.433483772069595 29.526823854678696,12.7636147188969 C30.056621608027584,12.613378999709749 30.464280223676308,12.186612930410945 30.59252396268081,11.647964144096543 C30.720767701685315,11.109315342489314 30.549548292889547,10.542989506838138 30.144922753315203,10.167476795345873 C29.740297365713808,9.791964099146437 29.16551987532278,9.665967555998009 28.642341303676446,9.838096990408312 C25.510774753835598,10.65703074515695 22.641906208452077,12.274559926946031 20.312704083670788,14.534524039121566 C18.196364994596884,16.821598677872494 16.56040236048342,19.514889329029764 15.502760314045183,22.453149652354135 C15.047150282350495,23.809046832168953 14.671628170000746,25.190872234841926 14.378160506928928,26.591388530184833 L14.226187560021327,27.25356792194414 C14.09644126449075,27.7875680407073 14.26150029791067,28.35055693571598 14.658516704006294,28.72817123331803 C15.055533110101917,29.10578553092008 15.62341209251397,29.239916007387436 16.14592821408473,29.07949119779313 C16.668444335655494,28.91906638819882 17.065190077932673,28.488773349594197 17.18358110684326,27.95856722818211Z"/>
    <ellipse id="ellipse-5" opacity="1" rx="1.5197294690760215" ry="1.5292826599522158" cx="13.890327347355136" cy="32.85227174002971"/>
    <path id="path-6" opacity="1" fill-rule="evenodd" d="M56.442752481482486,23.676575780316057 C52.2482182972249,23.681631741718125 48.849129513700085,27.102087580771514 48.84410513610237,31.32298908007715 C48.84410513610237,32.16758849514407 49.52451127126858,32.852271740029366 50.3638346051784,32.852271740029366 C51.20315793908821,32.852271740029366 51.883564074254416,32.16758849514407 51.883564074254416,31.32298908007715 C51.883564074254416,28.789190681948142 53.92478232778011,26.735141100220496 56.442752481482486,26.735141100220496 C57.2820758153923,26.735141100220496 57.962481950558505,26.05045785533519 57.962481950558505,25.205858440268276 C57.962481950558505,24.36125902520136 57.2820758153923,23.676575780316057 56.442752481482486,23.676575780316057Z"/>
    <path id="path-7" opacity="1" fill-rule="evenodd" d="M83.79791021186338,49.67438426595447 C82.23388433295713,49.67639842611072 80.70916509467588,50.16751781087635 79.43475103217588,51.0798102913451 L67.35741948920713,39.58112254720447 C70.79333257514463,35.0280524788451 71.04681157905088,28.803137928063848 67.99267339545713,23.982428699548223 L73.17803716498838,19.807501941735723 C76.70977544623838,22.957312732751348 82.05059575873838,22.859687000329473 85.46636724311338,19.582892566735723 C88.88213872748838,16.306128650720098 89.23412847358213,10.942542224938848 86.27630376655088,7.2421638069700975 C83.31841802436338,3.5417853890013475 78.03680181342588,2.7382270393919725 74.12402105170713,5.3932563362669725 C70.21130132514463,8.048316150720098 68.97186040717588,13.276862293298223 71.27227544623838,17.423346668298223 L66.10516118842588,21.586066394860723 C62.63622808295713,18.076178699548223 57.55126714545713,16.730384021813848 52.81512212592588,18.068701892907598 L51.49603032905088,14.765448719079473 C54.63537359076963,12.677649646813848 55.77843999701963,8.589057117516973 54.18139409858213,5.1603461800169725 C52.58434820014463,1.7316352425169725 48.73028325873838,0.000006824548222539306 45.12725591498838,1.0923224983763475 C41.52422857123838,2.1846686897825975 39.26214361030088,5.7705146370482225 39.81310796576963,9.516364246423223 C40.36407232123838,13.262213855798223 43.56133794623838,16.034949451501348 47.32439946967588,16.030158191735723 C47.77581548530088,16.024634510095098 48.22582769233213,15.979102283532598 48.66930913764463,15.894049793298223 L49.98693609076963,19.194251209313848 C44.17944097358213,22.318610340173223 41.41277837592588,29.166876941735723 43.40649175483213,35.4826423225951 L36.68627691108213,38.48920360189197 C34.02917241889463,34.41205516439197 28.708188532175882,33.06787791829822 24.452512262644632,35.3987800179076 C20.196774957957132,37.72965159993885 18.429685114207132,42.95596995931385 20.389646051707132,47.41495433431385 C22.349606989207132,51.87393870931385 27.381101129832132,54.07422557454822 31.957883356394632,52.47379222493885 C36.53466558295713,50.87332835775135 39.12597417670713,46.0074225960326 37.91570806342588,41.28626170736072 L44.66027593451963,38.27051463704822 C46.31609868842588,41.10602489095447 48.92254400092588,43.2543708382201 52.01122808295713,44.32953563314197 L50.15105962592588,52.7543708382201 C47.07275152045713,52.84561839681385 44.54272222358213,55.2271491585326 44.24694585639463,58.31180492025135 C43.95123052436338,61.3964606819701 45.98217534858213,64.22077098470447 48.98638677436338,64.9025641975951 C51.99053716498838,65.5843268929076 55.02959966498838,63.9106208382201 56.07818364936338,60.9968024788451 C57.12676763373838,58.08301463704822 55.85741948920713,54.83924022298572 53.11608648139463,53.42725291829822 L54.97167730170713,45.00394359212635 C55.46020269233213,45.0577155647826 55.95129155951963,45.0853034554076 56.44274663764463,45.0865241585326 C59.68011236030088,45.08780589681385 62.81188726264463,43.92743602376697 65.27538823920713,41.81388011556385 L77.35577153998838,53.31409373861072 C76.60485601264463,54.5142585335326 76.20416021186338,55.9025641975951 76.19921636420713,57.32080760579822 C76.19921636420713,61.5437995491576 79.60125493842588,64.96720042806385 83.79791021186338,64.96720042806385 C87.99450445014463,64.96720042806385 91.39654302436338,61.5437995491576 91.39654302436338,57.32080760579822 C91.39654302436338,53.09781566243885 87.99450445014463,49.67438426595447 83.79791021186338,49.67438426595447 L83.79791021186338,49.67438426595447ZM42.76513433295713,8.383765369470098 C42.76110601264463,6.0728522835325975 44.46569585639463,4.1196052132200975 46.74346685248838,3.8252021370482225 C49.02123784858213,3.5307685432982225 51.16106939155088,4.9870673714232225 51.73754644233213,7.2239753304075975 C52.31402349311338,9.460883289391973 51.14715337592588,11.780097156579473 49.00518560248838,12.636695056970098 C48.47125005561338,12.855139881188848 47.90069341498838,12.968817859704473 47.32433843451963,12.971594959313848 C46.11517095405088,12.971594959313848 44.95550298530088,12.488227039391973 44.10052251655088,11.627844959313848 C43.24548101264463,10.767462879235723 42.76513433295713,9.600531726891973 42.76513433295713,8.383765369470098 L42.76513433295713,8.383765369470098ZM45.80462407905088,31.323004871423223 C45.80462407905088,25.410803943688848 50.56744146186338,20.618018299157598 56.44274663764463,20.618018299157598 C62.31799077826963,20.618018299157598 67.08080816108213,25.410803943688848 67.08080816108213,31.323004871423223 C67.08080816108213,37.2352057991576 62.31799077826963,42.02799144368885 56.44274663764463,42.02799144368885 C50.57024907905088,42.02124705892322 45.81133794623838,37.2323981819701 45.80462407905088,31.323004871423223 L45.80462407905088,31.323004871423223ZM23.008725641550882,43.55725780111072 C23.008725641550882,46.9356452522826 25.730344293894632,49.67438426595447 29.087644098582132,49.67438426595447 C32.44494390326963,49.67438426595447 35.16656255561338,46.9356452522826 35.16656255561338,43.55725780111072 C35.16656255561338,40.17887034993885 32.44494390326963,37.44013133626697 29.087644098582132,37.44013133626697 C25.730344293894632,37.44013133626697 23.008725641550882,40.17887034993885 23.008725641550882,43.55725780111072 L23.008725641550882,43.55725780111072ZM50.36382818061338,61.90863719564197 C48.68523931342588,61.90863719564197 47.32439946967588,60.5392829475951 47.32439946967588,58.8500739632201 C47.32439946967588,57.1608649788451 48.68523931342588,55.79151073079822 50.36382818061338,55.79151073079822 C52.04247808295713,55.79151073079822 53.40331792670713,57.1608649788451 53.40331792670713,58.8500739632201 C53.40331792670713,60.5392829475951 52.04247808295713,61.90863719564197 50.36382818061338,61.90863719564197 L50.36382818061338,61.90863719564197Z"/>
  </defs>
  <g opacity="1">
    <g opacity="1">
      <use xlink:href="#path-1" fill="rgb(64,64,64)" fill-opacity="1"/>
    </g>
    <g opacity="1">
      <use xlink:href="#path-2" fill="rgb(64,64,64)" fill-opacity="1"/>
    </g>
    <g opacity="1">
      <use xlink:href="#path-3" fill="rgb(64,64,64)" fill-opacity="1"/>
    </g>
    <g opacity="1">
      <use xlink:href="#path-4" fill="rgb(64,64,64)" fill-opacity="1"/>
    </g>
    <g opacity="1">
      <use xlink:href="#ellipse-5" fill="rgb(64,64,64)" fill-opacity="1"/>
    </g>
    <g opacity="1">
      <use xlink:href="#path-6" fill="rgb(64,64,64)" fill-opacity="1"/>
    </g>
    <g opacity="1">
      <use xlink:href="#path-7" fill="rgb(229,1,77)" fill-opacity="1"/>
    </g>
  </g>
</svg>