<?xml version="1.0" encoding="utf-8"?>
<svg version="1.1" xmlns="http://www.w3.org/2000/svg" xmlns:xlink="http://www.w3.org/1999/xlink" height="26.000000000000455" width="41.999999999999915">
  <defs>
    <ellipse id="ellipse-1" opacity="1" rx="4.500000000000006" ry="4.465648854961865" cx="9.000000000000007" cy="4.4656488549619215"/>
    <ellipse id="ellipse-2" opacity="1" rx="4.500000000000007" ry="4.465648854961865" cx="33.00000000000012" cy="4.4656488549619215"/>
    <path id="path-3" opacity="1" fill-rule="evenodd" d="M30.000000000000107,26.00000000000045 L30.000000000000107,21.534351145038585 C30.000000000000107,20.839694656488962 29.70000000000011,20.14503816793934 29.100000000000108,19.748091603053837 C27.90000000000011,18.75572519084009 26.300000000000107,18.061068702290466 24.70000000000011,17.664122137404966 C23.600000000000108,17.36641221374084 22.30000000000011,17.068702290076715 21.000000000000114,17.068702290076715 C19.80000000000011,17.068702290076715 18.500000000000114,17.267175572519463 17.300000000000114,17.664122137404966 C15.700000000000113,18.061068702290463 14.200000000000113,18.854961832061463 12.900000000000114,19.748091603053837 C12.300000000000114,20.24427480916071 12.000000000000114,20.839694656488962 12.000000000000114,21.534351145038585 L12.000000000000114,26.00000000000045 "/>
    <ellipse id="ellipse-4" opacity="1" rx="4.5000000000000036" ry="4.465648854961865" cx="21.000000000000004" cy="11.412213740458208"/>
    <path id="path-5" opacity="1" fill-rule="evenodd" d="M41.099999999999916,12.801526717557662 C39.89999999999992,11.809160305343916 38.299999999999926,11.114503816794292 36.699999999999925,10.717557251908792 C35.59999999999992,10.419847328244666 34.299999999999926,10.122137404580542 32.99999999999993,10.122137404580542 C31.799999999999926,10.122137404580542 30.49999999999993,10.32061068702329 29.29999999999993,10.717557251908792 C28.69999999999993,10.91603053435154 28.09999999999993,11.114503816794288 27.49999999999993,11.412213740458414 L27.49999999999993,11.51145038167979 C27.49999999999993,13.19847328244316 26.799999999999933,14.786259541985157 25.699999999999932,15.877862595420275 C27.599999999999927,16.473282442748527 29.099999999999927,17.26717557251952 30.299999999999926,18.160305343511894 C30.599999999999923,18.45801526717602 30.899999999999928,18.656488549618768 31.099999999999923,19.053435114504268 L41.999999999999915,19.053435114504268 L41.999999999999915,14.587786259542405 "/>
    <path id="path-6" opacity="1" fill-rule="evenodd" d="M11.699999999999989,18.160305343511897 C13.099999999999984,17.167938931298153 14.699999999999983,16.374045801527153 16.29999999999998,15.877862595420279 C15.19999999999998,14.687022900763782 14.49999999999998,13.19847328244316 14.49999999999998,11.51145038167979 L14.49999999999998,11.312977099237042 C13.89999999999998,11.114503816794294 13.299999999999985,10.816793893130168 12.699999999999983,10.717557251908792 C11.599999999999985,10.419847328244668 10.299999999999985,10.122137404580542 8.999999999999988,10.122137404580542 C7.79999999999999,10.122137404580542 6.499999999999991,10.32061068702329 5.299999999999994,10.717557251908792 C3.6999999999999957,11.213740458015666 2.1999999999999975,11.908396946565288 0.8999999999999988,12.801526717557664 C0.29999999999999943,13.19847328244316 0,13.893129770992786 0,14.587786259542408 L0,19.053435114504275 L10.799999999999986,19.053435114504275 "/>
  </defs>
  <g opacity="1">
    <g opacity="1">
      <use xlink:href="#ellipse-1" fill="rgb(255,255,255)" fill-opacity="1"/>
    </g>
    <g opacity="1">
      <use xlink:href="#ellipse-2" fill="rgb(255,255,255)" fill-opacity="1"/>
    </g>
    <g opacity="1">
      <use xlink:href="#path-3" fill="rgb(255,255,255)" fill-opacity="1"/>
    </g>
    <g opacity="1">
      <use xlink:href="#ellipse-4" fill="rgb(255,255,255)" fill-opacity="1"/>
    </g>
    <g opacity="1">
      <use xlink:href="#path-5" fill="rgb(255,255,255)" fill-opacity="1"/>
    </g>
    <g opacity="1">
      <use xlink:href="#path-6" fill="rgb(255,255,255)" fill-opacity="1"/>
    </g>
  </g>
</svg>