<?xml version="1.0" encoding="utf-8"?>
<!-- Generator: Adobe Illustrator 21.0.0, SVG Export Plug-In . SVG Version: 6.00 Build 0)  -->
<svg version="1.1" id="Layer_1" xmlns="http://www.w3.org/2000/svg" xmlns:xlink="http://www.w3.org/1999/xlink" x="0px" y="0px"
	 viewBox="0 0 92 92" style="enable-background:new 0 0 92 92;" xml:space="preserve">
<style type="text/css">
	.st0{fill:#FFFFFF;}
	.st1{fill:#E50051;}
	.st2{fill:#212B36;}
</style>
<path id="path-2" d="M83.2,73.3l0.2-0.7l3.3-0.9v-6.3l-3.3-0.9l-0.2-0.7c-0.2-0.8-0.6-1.5-1-2.3L82,60.8l1.7-3l-4.4-4.4l-3,1.7
	l-0.7-0.3c-0.8-0.4-1.5-0.7-2.3-1l-0.7-0.2l-0.9-3.3h-6.3l-0.9,3.3l-0.7,0.2c-0.8,0.2-1.5,0.6-2.3,1l-0.7,0.3l-3-1.7l-4.5,4.4l1.7,3
	l-0.4,0.7H58c2.3-3.4,6.2-5.6,10.5-5.6c7,0,12.7,5.7,12.7,12.7c0,7-5.7,12.7-12.7,12.7c-4.4,0-8.2-2.2-10.5-5.6h-3.2l0.4,0.7l-1.7,3
	l4.4,4.4l3-1.7l0.7,0.4c0.8,0.4,1.5,0.7,2.3,1l0.7,0.2l0.9,3.3h6.3l0.9-3.3l0.7-0.2c0.8-0.2,1.5-0.6,2.3-1l0.7-0.4l3,1.7l4.4-4.4
	l-1.7-3l0.3-0.7C82.7,74.8,83,74.1,83.2,73.3z M89.6,73.8V63.2l-4-1.1c-0.1-0.4-0.3-0.8-0.5-1.3l2-3.6L84,54.1V2.3H2.3v67.6h7.4
	c0.4,0.8,1,1.5,1.8,1.8l8.8,3.8h31.3c0.1,0.2,0.1,0.4,0.2,0.6l-2,3.6l7.5,7.5l3.6-2c0.4,0.2,0.8,0.4,1.2,0.5l1.1,4h10.6l1.1-4
	c0.4-0.2,0.8-0.3,1.3-0.5l3.6,2l7.5-7.5l-2-3.6c0.2-0.4,0.4-0.8,0.5-1.3L89.6,73.8z M68.5,58.7c5.4,0,9.8,4.4,9.8,9.8
	c0,5.4-4.4,9.9-9.8,9.9c-5.4,0-9.9-4.4-9.9-9.9C58.7,63.1,63.1,58.7,68.5,58.7z M5.2,5.2h76v8.5h-76V5.2z M19.2,72l-6.6-2.8
	c-0.3-0.1-0.4-0.4-0.4-0.7c0-0.3,0.2-0.5,0.4-0.7l6.6-2.8V72z M11.5,65.3c-0.8,0.4-1.5,1-1.8,1.9H5.2V16.4h76v34.9l-1.5-1.5l-3.6,2
	c-0.4-0.2-0.8-0.4-1.3-0.5l-1.1-4H63.2l-1.1,4c-0.4,0.1-0.8,0.3-1.2,0.5l-3.6-2l-7.5,7.5l2,3.6c-0.1,0.2-0.2,0.4-0.2,0.6H20.4
	L11.5,65.3z M22.1,72.8v-2.8h2.8v-2.8h-2.8v-2.8h34.5c-0.3,0.9-0.6,1.8-0.7,2.8H27.7v2.8h28.2c0.1,1,0.3,1.9,0.7,2.8H22.1z"/>
<path class="st0" d="M79.2,83.7l4.4-4.4l-1.7-3l0.3-0.7c0.4-0.8,0.7-1.5,0.9-2.3l0.2-0.7l3.3-0.9v-6.3l-3.3-0.9l-0.2-0.7
	c-0.2-0.8-0.6-1.5-0.9-2.3L82,60.8l1.7-3l-4.4-4.4l-3,1.7l-0.7-0.3c-0.8-0.4-1.5-0.7-2.3-0.9l-0.7-0.2l-0.9-3.3h-6.3l-0.9,3.3
	l-0.7,0.2c-0.8,0.2-1.5,0.6-2.3,0.9l-0.7,0.3l-3-1.7l-4.4,4.4l1.7,3l-0.3,0.7H58c2.3-3.4,6.1-5.6,10.5-5.6c7,0,12.7,5.7,12.7,12.7
	c0,7-5.7,12.7-12.7,12.7c-4.4,0-8.3-2.2-10.5-5.6h-3.3l0.3,0.7l-1.7,3l4.4,4.4l3-1.7l0.7,0.3c0.8,0.4,1.5,0.7,2.3,0.9l0.7,0.2
	l0.9,3.3h6.3l0.9-3.3l0.7-0.2c0.8-0.2,1.5-0.6,2.3-0.9l0.7-0.3L79.2,83.7L79.2,83.7z"/>
<path id="path-3" class="st1" d="M75.6,68.5c0,3.9-3.2,7-7,7c-3.9,0-7-3.2-7-7c0-3.9,3.2-7,7-7C72.4,61.5,75.6,64.7,75.6,68.5
	L75.6,68.5z M72.7,68.5c0-2.3-1.9-4.2-4.2-4.2c-2.3,0-4.2,1.9-4.2,4.2c0,2.3,1.9,4.2,4.2,4.2C70.8,72.8,72.7,70.9,72.7,68.5
	L72.7,68.5z"/>
<path id="path-4" d="M8,8h2.8v2.8H8V8z"/>
<path id="path-5" d="M13.6,8h2.8v2.8h-2.8V8z"/>
<path id="path-6" d="M19.2,8h2.8v2.8h-2.8V8z"/>
<path id="path-7" d="M8,19.2h39.4v25.3H8V19.2L8,19.2z M10.8,41.8h33.8V22.1H10.8V41.8L10.8,41.8z"/>
<path id="path-8" d="M50.2,19.2H53v2.8h-2.8V19.2z"/>
<path id="path-9" d="M55.8,19.2h22.5v2.8H55.8V19.2z"/>
<path id="path-10" d="M50.2,24.9h28.2v2.8H50.2V24.9z"/>
<path id="path-11" d="M50.2,30.5h28.2v2.8H50.2V30.5z"/>
<path id="path-12" d="M64.3,36.1h14.1V39H64.3V36.1z"/>
<path id="path-13" d="M50.2,36.1h11.3V39H50.2V36.1z"/>
<path id="path-14" class="st2" d="M50.2,41.8h22.5v2.8H50.2V41.8z"/>
<path id="path-15" class="st2" d="M10.8,47.4h5.6c1.6,0,2.8,1.3,2.8,2.8V53c0,1.6-1.3,2.8-2.8,2.8h-5.6C9.2,55.9,8,54.6,8,53v-2.8
	C8,48.7,9.2,47.4,10.8,47.4L10.8,47.4z M10.8,50.2V53h5.6l0-2.8H10.8L10.8,50.2z"/>
<path id="path-16" d="M24.9,47.4h5.6c1.6,0,2.8,1.3,2.8,2.8V53c0,1.6-1.3,2.8-2.8,2.8h-5.6c-1.6,0-2.8-1.3-2.8-2.8v-2.8
	C22.1,48.7,23.3,47.4,24.9,47.4L24.9,47.4z M24.9,50.2V53h5.6l0-2.8H24.9L24.9,50.2z"/>
<path id="path-17" class="st2" d="M39,47.4h5.6c1.6,0,2.8,1.3,2.8,2.8V53c0,1.6-1.3,2.8-2.8,2.8H39c-1.6,0-2.8-1.3-2.8-2.8v-2.8
	C36.1,48.7,37.4,47.4,39,47.4L39,47.4z M39,50.2V53h5.6l0-2.8H39L39,50.2z"/>
<path id="path-18" class="st1" d="M13.6,24.9h22.5v2.8H13.6V24.9z"/>
<path id="path-19" class="st1" d="M39,24.9h2.8v2.8H39V24.9z"/>
<path id="path-20" class="st1" d="M19.2,30.5h22.5v2.8H19.2V30.5z"/>
<path id="path-21" class="st1" d="M13.6,36.1h22.5V39H13.6V36.1z"/>
<path id="path-22" class="st1" d="M13.6,30.5h2.8v2.8h-2.8V30.5z"/>
</svg>
