<?xml version="1.0" encoding="utf-8"?>
<svg version="1.1" xmlns="http://www.w3.org/2000/svg" xmlns:xlink="http://www.w3.org/1999/xlink" height="80" width="80">
  <defs>
    <path id="path-1" opacity="1" fill-rule="evenodd" d="M41.162806290144694,64.67293703613775 C41.175690879420564,64.73055375877234 41.18883940243884,64.78808118323337 41.20045733119531,64.8460768383333 C41.276744839749576,65.15253867607578 41.36808224612711,65.46880308666826 41.508202275604454,65.81602328014185 C43.14604885779884,69.88205930746133 46.62984623513173,72.68045781451497 50.8542034945344,73.55495744256476 L62.82459950168771,73.55495744256476 C68.97897951855427,73.55495744256476 73.98748960114492,68.57675900975246 73.98748960114492,62.4599055312101 L73.98748960114492,14.942333968970168 C73.98748960114492,8.824964556126655 68.97897951855427,3.8462502578099764 62.82459950168771,3.8462502578099764 L15.028125039629957,3.8462502578099764 C8.873226082245752,3.8462502578099764 3.8678298088440775,8.824964556126655 3.8678298088440775,14.942333968970168 L3.8678298088440775,62.4599055312101 C3.8678298088440775,68.57675900975246 8.873226082245752,73.55495744256476 15.028125039629957,73.55495744256476 L22.399472678942516,73.55495744256476 C22.374908433354264,76.16796551123821 22.358301644776766,77.4503929555057 22.34965231321002,77.40223950018027 L15.028125039629957,77.40223950018027 C6.740807914260315,77.40223950018027 1.7053025658242404e-13,70.69722697245784 1.7053025658242404e-13,62.4599055312101 L1.7053025658242404e-13,14.942333968970168 C1.7053025658242404e-13,6.703464738578363 6.740807914260315,0 15.028125039629957,0 L62.82459950168771,0 C71.11243553989448,0 77.8563573124765,6.703464738578363 77.8563573124765,14.942333968970168 L77.8563573124765,62.4599055312101 C77.8563573124765,70.69722697245784 71.11243553989448,77.40223950018027 62.82459950168771,77.40223950018027 L53.879237662701264,77.36096516886995 C46.53280013705365,77.49665450037413 40.16408862103124,73.3176301407256 38.2579382345996,66.28087531097015 C38.143516798352216,65.86065530533449 38.013697520165984,65.46624494854342 37.86683188677096,65.09143959985892 L37.42609270872159,64.68113444335933 C36.391280889311744,63.72099057440081 35.35854483197245,62.76084684303578 34.308683114739324,61.81721281667619 C32.92253340980212,60.573824084729516 31.521852816760575,59.34694505778829 30.11805844221059,58.12316160913517 C29.43302747917127,57.526231800669976 28.747477644815604,56.937040937925055 28.060889929424654,56.34423865890635 C26.94460091947893,55.383578951962136 25.829868800287432,54.42291924501794 24.729148697883932,53.44420204392424 C22.91693048961934,51.8324400460664 21.552058383924887,50.56686629052379 20.306028570062438,49.347726209302834 C18.790657209330035,47.86546238637296 17.49221225794558,46.267114515232436 16.448578103729336,44.59911627020291 C14.978875446185699,42.24854397579947 14.052007821730882,39.621949788548996 13.696518315180585,36.794659125744 C13.601548117575664,36.03211615405187 13.554841464150314,35.27679615250086 13.509172747121287,34.54727272841308 C13.490490085751148,34.248549836390886 13.47336430129497,33.94931096878952 13.451048904058487,33.6516200279257 C13.342585685544252,32.19308888014235 13.465579861364123,30.70153832234814 13.81380391002199,29.22082228856232 C14.345740749352034,26.966212783496818 15.368097581130709,24.967504049999135 16.851812117059747,23.281964286399315 C18.89912041400401,20.955124667142396 21.4664295308453,19.470281241503592 24.4867930267495,18.831561126148912 L24.48264136420577,18.85942133074191 C24.896254603096793,18.75984698753668 25.319728334634675,18.674202884221444 25.756694934839025,18.61487105876165 C28.342686740730972,18.25114116028264 30.78700148798876,18.674202884221444 33.33666579681468,19.927910164597307 C33.898702528673084,20.20444803302354 34.50536994428239,20.39018245512318 35.15147877686877,20.58675140123122 C35.50022175220402,20.69406469015671 35.85000260857455,20.800862003503035 36.19199914957658,20.921589281552365 C37.41675136419627,21.35961292135254 39.24765212310892,22.01484274171265 38.99543623613282,23.967633776467856 C38.854797335339136,25.024256272749994 37.84852842082161,26.10977078719 36.96681062823921,26.59474393929753 C35.55834558142656,27.36347806756586 33.835908027187884,26.568947499427768 33.02269328938864,24.763712133750005 C32.138380586614154,22.80782552070669 30.690993409348554,21.779579204596725 28.595421499023423,21.623252638640636 C28.332826386486705,21.605195144491155 28.065560601687316,21.595392571641135 27.797256797450054,21.595392571641135 C26.83613757640236,21.595392571641135 24.518968722869207,21.768228705009157 22.533935917691213,23.092102334853195 L22.533935917691213,23.13440847972838 C21.390141883888443,23.7230835044876 20.370379962301868,24.52483704276679 19.462714036616642,25.55463114802081 C18.357842271669412,26.809370379555038 17.59444789960267,28.30865988306952 17.193808658061766,30.009161700124196 C16.924985982508158,31.148848697012646 16.8294967751843,32.28956764505946 16.911492975439103,33.400362623790045 C16.93484619834983,33.71301561810873 16.954566768435775,34.02463666126904 16.972730586170087,34.33677368000855 C17.016842398604634,35.04462819367304 17.056802548495455,35.7122401895921 17.140355501101887,36.36643805879385 C17.433569557406692,38.69585728075969 18.192293118808177,40.85089244261997 19.39628688230665,42.776855223940544 C20.29564934450183,44.21423329928631 21.42076068925393,45.59692277901096 22.74048310147855,46.88829297442333 C23.946552765450186,48.07080209176614 25.27302161200803,49.298197094286564 27.043722779627583,50.87332812826625 C28.129911855524156,51.84017899178668 29.23166997736553,52.78845638557845 30.332909089487973,53.73570182821185 C31.025205358176873,54.33314761225622 31.716463884233082,54.92956144514223 32.40564650981613,55.52855501833066 C33.822415020118825,56.763688828977855 35.236069610510484,58.00140237992747 36.63467444148146,59.25820523859145 C37.52780934065975,60.05944293888495 38.409527271644734,60.87564255503982 39.29072605450819,61.69235800918039 C39.96382076283008,61.069115922859744 40.63743448087093,60.4500010907986 41.31260522806857,59.83140237191012 C42.147097288305375,59.07401860563586 42.98210849666372,58.320762368808076 43.82542303010951,57.57834065598867 C44.94690172203683,56.59085269560983 46.074607838578444,55.614199121645896 47.20023819304949,54.63754568527544 L48.6631944162599,53.37455167003525 C49.53245708280852,52.625938800639624 50.403276640111365,51.87732579365052 51.263198100537245,51.11684658668164 L51.549146574387294,50.862493604257864 C52.71577495978445,49.83166754784549 53.920806604318194,48.76369468956926 55.04176628652658,47.679211988694135 C55.8648412401675,46.881070004282236 56.71438333663018,45.96993941235431 57.63606127910339,44.89216384363458 C59.05750046166875,43.23293635789021 60.093869171832836,41.42512138950352 60.71870040517645,39.519795842634835 C61.43798282640605,37.325549976594 61.749360562042575,34.89604057343723 61.6652885997172,32.0904190962425 C61.62999912208905,30.903782449453214 61.39854168623417,29.752744952977196 60.97247318290678,28.669294203260428 C60.264607868273075,26.856319891862388 59.220973714056825,25.415846375822003 57.822887892804786,24.30143984322413 C55.68579908023721,21.84768178934166 52.362361312186536,21.595392571641135 51.163038220950725,21.595392571641135 C50.8952534264324,21.595392571641135 50.628506512949365,21.605195144491155 50.36539239069371,21.623252638640636 C48.270858499806444,21.779579204596725 46.82347118413825,22.80782552070669 45.938639610047424,24.763712133750005 C45.123867981493966,26.568947499427768 43.404025337447386,27.36347806756586 41.99348439016156,26.59474393929753 C41.11332348833339,26.10977078719 40.10549768306166,25.024256272749994 39.96537765358431,23.967633776467856 C39.71264275688926,22.01484274171265 41.544062525520864,21.35961292135254 42.767776859105275,20.921589281552365 C43.10977340010729,20.800862003503035 43.46111114723205,20.69406469015671 43.80881624153201,20.58675140123122 C44.45544394543473,20.39018245512318 45.062630370762975,20.20444803302354 45.62414823130504,19.927910164597307 C48.17381240172837,18.674202884221444 50.6176082776698,18.25114116028264 53.20308107384282,18.61487105876165 C54.77761414483305,18.834656704437023 56.202685980223194,19.309827283694524 57.448196784366715,20.00323585707683 C60.61594575380042,21.57836689105653 62.89626837735379,24.062564752240913 64.20716831636942,27.416618736449433 C64.77698950199895,28.86947470323575 65.0873293566002,30.409522562481353 65.13507382185954,31.990844753037276 C65.22900613842916,35.19940683289158 64.86417524583275,38.01379920696496 64.01670904984323,40.590864279199174 C63.25175778702228,42.923894917438815 61.99482987628286,45.12278415091182 60.27861988506107,47.12819987897142 C59.28688199705048,48.28852411031177 58.36520405457726,49.27652804626979 57.46220880115471,50.15154351230527 C56.28520119019694,51.29019869562884 55.05058862133298,52.383452155789115 53.85697408339512,53.43904270091289 L53.57206362898295,53.692363869771796 C52.699687042523294,54.46470941431394 51.81589348787033,55.22364096973225 50.93417555688535,55.98463615228031 L49.482117707357084,57.23782759467049 C48.36063901542976,58.21035363918795 47.239679333221375,59.180815918982184 46.1265041047841,60.1615968847991 C45.29668257840736,60.89112044648037 44.476202396555955,61.631994370155724 43.65779811517771,62.37441608297512 C42.82366396404308,63.136937177302684 41.991698443118054,63.90341064456677 41.162806290144694,64.67293703613775Z"/>
    <path id="path-2" opacity="1" fill-rule="evenodd" d="M25.512028078825875,80.88753070340961 C22.501935162447765,80.88753070340961 20.062375651436156,78.46169312006779 20.062375651436156,75.47189560461602 C20.062375651436156,72.48263786841684 22.501935162447765,70.05572100175687 25.512028078825875,70.05572100175687 C28.521035226871966,70.05572100175687 30.96059487628617,72.48263786841684 30.96059487628617,75.47189560461602 C30.96059487628617,78.46169312006779 28.521035226871966,80.88753070340961 25.512028078825875,80.88753070340961Z"/>
  </defs>
  <g opacity="1">
    <g opacity="1">
      <g opacity="1">
        <use xlink:href="#path-1" fill="rgb(48,57,68)" fill-opacity="1"/>
      </g>
      <g opacity="1">
        <use xlink:href="#path-2" fill="rgb(229,0,81)" fill-opacity="1"/>
      </g>
    </g>
  </g>
</svg>