<?xml version="1.0" encoding="utf-8"?>
<svg version="1.1" xmlns="http://www.w3.org/2000/svg" xmlns:xlink="http://www.w3.org/1999/xlink" height="81.7447509765625" width="115.74235910152436">
  <defs>
    <path id="path-1" opacity="1" fill-rule="evenodd" d="M27.27322954122154,51.746605084546026 C21.359131109167258,51.766984263713056 16.44332132850285,47.22868131183199 16.034604704366796,41.371044078748014 L15.70726611688559,36.65269150998604 C15.495200648129895,33.56547686933168 16.5853737700714,30.52968177012297 18.716825618753102,28.271998753338963 C20.848277467434805,26.014315736554966 23.829147538731526,24.737967878533492 26.94589095374031,24.748480564818745 L27.600568128702722,24.748480564818745 C30.713251112058646,24.747765341167526 33.68651874770478,26.0301237866969 35.81035921171416,28.289330640040323 C37.93419967572354,30.548537493383744 39.01795353781282,33.58178133868866 38.802822011392884,36.66472812368189 L38.475483423911676,41.383080692443855 C38.061635567712216,47.2220599361894 33.16897344587686,51.7484011326075 27.27322954122154,51.746605084546026 L27.27322954122154,51.746605084546026Z"/>
    <path id="path-2" opacity="1" fill-rule="evenodd" d="M27.202070304323115,20.9986572265625 C34.745039054323115,21.00238037109375 41.047773429323115,26.8463134765625 41.75471312658874,34.491943359375 C41.82826048986999,35.29071044921875 41.83625609533874,36.0943603515625 41.77857787268249,36.89453125 L41.456770011354365,41.63897705078125 C41.35401732580749,43.17547607421875 41.016218253541865,44.6861572265625 40.455610343385615,46.11651611328125 C39.325910636354365,48.9703369140625 37.36207396643249,51.40179443359375 34.829999991823115,53.08160400390625 C32.990461417604365,54.3109130859375 30.89900023596374,55.09539794921875 28.715742179323115,55.37493896484375 C28.107404776979365,55.45843505859375 27.494123526979365,55.49896240234375 26.88026244299499,55.496337890625 C19.185529776979365,55.5091552734375 12.79499632971374,49.4537353515625 12.25611693518249,41.63897705078125 L11.981977530885615,36.88238525390625 C11.70442015783874,32.7708740234375 13.11591918127624,28.7265625 15.879438468385615,25.7152099609375 C18.642988273073115,22.703857421875 22.510480948854365,20.99566650390625 26.55848509924499,20.9986572265625 L27.202070304323115,20.9986572265625 L27.202070304323115,20.9986572265625ZM34.281782218385615,41.1414794921875 L34.60359007971374,36.39697265625 L34.639326163698115,36.39697265625 C34.781293937135615,34.2978515625 34.06165892736999,32.2327880859375 32.651960441041865,30.694091796875 C31.242292472291865,29.1553955078125 29.268842765260615,28.28094482421875 27.20210082190124,28.2791748046875 L26.558515616823115,28.2791748046875 C24.486494132448115,28.27056884765625 22.504560538698115,29.1409912109375 21.088850089479365,30.68133544921875 C19.673139640260615,32.22161865234375 18.95155150549499,34.292724609375 19.09742552893249,36.39697265625 L19.407331534791865,41.1414794921875 C19.718000480104365,45.0887451171875 22.954999991823115,48.13079833984375 26.84455687658874,48.13079833984375 C30.73408324377624,48.13079833984375 33.971113273073115,45.0887451171875 34.281782218385615,41.1414794921875 L34.281782218385615,41.1414794921875Z"/>
    <path id="path-3" opacity="1" fill-rule="evenodd" d="M49.237632421752764,78.74493076305822 L5.229057693433478,78.74493076305822 C5.229057693433478,78.74493076305822 5.189820002299696,76.00181739650517 5.46038747829732,72.51848623653936 C5.842960842122649,67.59317245197565 6.844928122234152,61.18794016827288 9.453014414691356,58.96486577520933 C12.47356466265639,56.34400716431934 20.789103393109944,55.25610358998766 28.79175644050735,55.540442024187996 C31.30584415683399,55.60373986032712 33.813715708046416,55.826691077294285 36.3010128338547,56.208019217527884 C35.741856721614624,57.32496339450708 35.305926443411465,58.502588369041035 35.00133384269842,59.71898075287107 C33.800821996810186,64.75597323373829 33.14301933877807,69.91328977754574 33.03978129123108,75.09798128092358 L49.27373461595155,75.09798128092358 C49.30983681015033,77.23670080773475 49.237632421752764,78.74493076305822 49.237632421752764,78.74493076305822Z"/>
    <path id="path-4" opacity="1" fill-rule="evenodd" d="M50.76539462803912,74.48060124658875 L7.193464280523555,74.48060124658875 C7.467127414874418,68.75843782159335 8.526084760840797,62.819434519440236 10.037181198343387,61.530441916336 C12.024213521673563,59.831862878600525 18.18758324314081,58.98859668965383 24.56512411323047,58.98859668965383 L25.754963827799436,58.98859668965383 C28.173484684443267,59.01902353362709 30.58852992891103,59.183909515815316 32.989189292378754,59.48250974317976 C33.290348028961375,58.29719794231214 33.72136379071804,57.14966298741834 34.27421618411322,56.061258348024616 C34.57216644584647,55.4764999256594 34.97575002821291,54.95347589005881 35.46405589868219,54.519285888236375 C36.23645535311029,53.90662924026311 37.10530532435141,53.4301378163919 38.03410968215116,53.109826686711195 C36.57060683323134,52.784566870974615 34.976221615708916,52.50749369460641 33.274750823875294,52.290653817448685 C31.57328003204167,52.073813940290954 30.12167558026753,51.95334734187001 28.515391965599427,51.856974063133244 C24.745814652567443,51.641297772569025 20.96507066308939,51.742030793986274 17.211914677194237,52.15814055918563 C12.155095890276128,52.74842689144831 7.776485740662331,54.00127951502626 5.444399900107153,55.988978388972036 C0.16151156742093903,60.50647582975788 -0.05265958120147468,74.05896815211543 0.006832404526974506,78.13073917874372 L0.006832404526974506,81.7447371313724 L50.53932508227101,81.7447371313724 L50.70590264231067,78.29939241653307 C50.70590264231067,77.55249950632313 50.77729302518481,76.50444010006082 50.77729302518481,75.23954081664077 C50.77729302518481,75.02270093948306 50.77729302518481,74.73358110327277 50.76539462803912,74.48060124658875Z"/>
    <path id="path-5" opacity="1" fill-rule="evenodd" d="M89.96822057074591,51.746641016043384 C84.06524253105314,51.747996103309774 79.16847943490257,47.21681568410848 78.7604983784573,41.37566526239339 L78.43300000270861,36.65939786630199 C78.21776346119053,33.5778135221792 79.30204635089413,30.545910152618163 81.4269235542344,28.287701706307516 C83.55180075757467,26.029493259996865 86.52651977506959,24.747701524721858 89.64072219499721,24.748416432295617 L90.31997808543896,24.748416432295617 C93.43418050536657,24.747701524721833 96.40889952286147,26.029493259996848 98.53377672620176,28.287701706307498 C100.65865392954204,30.54591015261813 101.74293681924563,33.577813522179184 101.52770027772755,36.659397866301966 L101.20020190197887,41.37566526239337 C100.79159094298316,47.22607499005275 95.88053801924963,51.760663260361184 89.96822057074591,51.746641016043384 L89.96822057074591,51.746641016043384Z"/>
    <path id="path-6" opacity="1" fill-rule="evenodd" d="M90.64631468908874,20.9986572265625 C94.70640380041687,20.9935302734375 98.58717162268249,22.6688232421875 101.36530882971374,25.62603759765625 C104.10163695471374,28.56805419921875 105.50947386877624,32.50262451171875 105.25984007971374,36.510498046875 L104.93830687658874,41.16162109375 C104.38984496252624,48.79901123046875 98.03861815588562,54.722412109375 90.37238890783874,54.746337890625 C89.86698729651062,54.74859619140625 89.36189086096374,54.72076416015625 88.85981566565124,54.6630859375 C86.48261840002624,54.42681884765625 84.20023924963562,53.6097412109375 82.21403319494812,52.28399658203125 C78.47761351721374,49.77978515625 76.10841185705749,45.6925048828125 75.79453856604187,41.209228515625 L75.47297484533874,36.55804443359375 C75.40128905432312,35.73486328125 75.40128905432312,34.906982421875 75.47297484533874,34.08380126953125 C76.25279051916687,26.65228271484375 82.52189452307312,21.00665283203125 90.00315673010437,20.9986572265625 L90.64631468908874,20.9986572265625 L90.64631468908874,20.9986572265625ZM90.05079466955749,28.11224365234375 C87.97889525549499,28.10577392578125 85.99958617346374,28.96905517578125 84.59602172033874,30.4913330078125 C83.20466429846374,32.011962890625 82.50614745276062,34.0404052734375 82.66660887854187,36.0941162109375 L82.98817259924499,40.74530029296875 C83.25919921057312,44.64862060546875 86.50852782385437,47.67669677734375 90.42597777502624,47.67669677734375 C94.34342772619812,47.67669677734375 97.59272582190124,44.64862060546875 97.86375243322937,40.74530029296875 L98.14961058752624,36.07037353515625 C98.29145629065124,34.012451171875 97.57234007971374,31.988037109375 96.16367919104187,30.4796142578125 C94.75501830236999,28.97119140625 92.78300292151062,28.11395263671875 90.71775633947937,28.11224365234375 L90.05079466955749,28.11224365234375 L90.05079466955749,28.11224365234375Z"/>
    <path id="path-7" opacity="1" fill-rule="evenodd" d="M111.96269946446314,78.74493076305824 L67.95196566605682,78.74493076305824 C67.95196566605682,78.74493076305824 67.95196566605682,77.23785482191002 68.03611620869239,75.03900631761181 L84.31323545563097,75.03900631761181 C84.38530217926923,69.8141876908077 83.79119712942698,64.60216784996925 82.5460740602839,59.53588905416091 C82.21912604149527,58.29789329708836 81.7254811214276,57.11289936389984 81.07945031720674,56.01526083098681 C83.62655047500951,55.67318202171402 86.19243264076337,55.49988082336982 88.76119270922574,55.49643140862429 C96.46697811342635,55.49643140862429 104.47330116989687,56.73173955710643 107.75517233268435,58.96764730585912 C112.75611886645572,62.42651012160913 111.96269946446314,78.74493076305824 111.96269946446314,78.74493076305824Z"/>
    <path id="path-8" opacity="1" fill-rule="evenodd" d="M109.95205640979874,55.76132477405858 C107.56927090484857,54.10871219608643 103.24451521336402,52.92655137388739 98.26449350801816,52.28721950065729 C94.6328689282188,51.83699466821925 90.97263926281747,51.667624215492 87.31559411277215,51.78057914828628 C85.55233283910903,51.78057914828628 83.8128994204954,51.96152213127594 82.15686349455504,52.15452797979823 C80.37121570330713,52.35047340445446 78.6001824091833,52.66478242857288 76.85516574604091,53.095431491344414 C78.11733984078326,53.4679771539448 79.32077887067715,54.02035630580422 80.42934400346616,54.73598120378393 C80.84406106639666,55.04247983211758 81.19607518510273,55.42757158374567 81.46585569811948,55.8698905638524 C82.12470562515844,56.962280743129476 82.62617687090123,58.144299979862154 82.95509663871331,59.38018443385159 C85.11968119772507,59.1430697216322 87.29483127597746,59.01825692121223 89.47201499475206,59.00623560233964 L90.17493671871236,59.00623560233964 C94.2804171407202,59.00623560233964 98.41426692771257,59.39879714311031 101.55778638584043,60.12963419150831 C103.40419686366371,60.558906286597285 104.90893935713703,61.10488480526769 105.86557926880923,61.75656894378233 C107.31907842682884,62.75778678299173 108.42707368663066,68.39114498673618 108.53429903435341,74.50701781178637 L64.96506607633955,74.50701781178637 C64.96506607633955,76.03900173443208 64.96506607633955,77.31766548089227 64.96506607633955,78.12587747157939 L64.96506607633955,81.7447371313724 L115.50394663633264,81.7447371313724 L115.67074162167916,78.2947575890364 C115.67074162167916,77.53479706047986 115.74222518682767,76.44913916254195 115.74222518682767,75.15841255054912 C115.7541391143524,69.33204849828238 114.9797338252436,59.25955577852516 109.95205640979874,55.76132477405858Z"/>
    <path id="path-9" opacity="1" fill-rule="evenodd" d="M59.089643546510615,0.00006103515625 C64.04865843908874,0.01971435546875 68.77815062658874,2.0989990234375 72.15382201330749,5.74359130859375 C75.50013548986999,9.37835693359375 77.20640380041687,14.23553466796875 76.87113768713562,19.17205810546875 L76.44749266760437,25.294677734375 C76.41312987463562,25.7197265625 76.37879759924499,26.14471435546875 76.31010253088562,26.55828857421875 C76.08354003088562,28.2041015625 75.62476927893249,29.8092041015625 74.94758422033874,31.325439453125 C72.94352538244812,35.84149169921875 69.17533690588562,39.33111572265625 64.52827269690124,40.974609375 C60.60023314611999,42.37664794921875 56.30390746252624,42.3359375 52.40296752111999,40.8597412109375 C47.93586547033874,39.1787109375 44.313459464479365,35.79229736328125 42.32716185705749,31.4403076171875 C41.613752433229365,29.8690185546875 41.135358878541865,28.20074462890625 40.907392569948115,26.48931884765625 C40.850141593385615,26.12176513671875 40.78144652502624,25.731201171875 40.78144652502624,25.34063720703125 L40.369245597291865,19.218017578125 C40.012556144166865,14.24359130859375 41.73695189611999,9.34490966796875 45.12824828283874,5.69842529296875 C48.519514151979365,2.05194091796875 53.27131468908874,-0.0128173828125 58.242353507448115,0.00006103515625 L59.089643546510615,0.00006103515625 L59.089643546510615,0.00006103515625ZM69.76081664221374,24.83294677734375 L70.18983275549499,18.65838623046875 L70.16663939611999,18.65838623046875 C70.37510497229187,15.57958984375 69.29786498205749,12.552001953125 67.19099242346374,10.2955322265625 C65.08411986486999,8.0390625 62.135908194948115,6.75537109375 59.04731566565124,6.74957275390625 L58.18928343908874,6.74957275390625 C55.099592276979365,6.751953125 52.149274894166865,8.03460693359375 50.041669913698115,10.2918701171875 C47.934064933229365,12.54913330078125 46.85798461096374,15.5787353515625 47.06995970861999,18.65838623046875 L47.52216918127624,24.83294677734375 C47.900983878541865,30.6904296875 52.766584464479365,35.24774169921875 58.64149291174499,35.24774169921875 C64.51637084143249,35.24774169921875 69.38200194494812,30.6904296875 69.76081664221374,24.83294677734375 L69.76081664221374,24.83294677734375Z"/>
    <path id="path-10" opacity="1" fill-rule="evenodd" d="M85.02607543127624,56.3731689453125 C85.41367919104187,57.5098876953125 85.73655516760437,58.67340087890625 85.99265868322937,59.856689453125 C86.96897704260437,64.75189208984375 87.42805297033874,69.760498046875 87.36027342932312,74.7777099609375 C87.36027342932312,76.31048583984375 87.29859740393249,77.51806640625 87.29859740393249,78.26123046875 C87.29383666174499,78.3153076171875 87.29383666174499,78.3697509765625 87.29859740393249,78.423828125 L87.15461547033874,81.7447509765625 L29.869001456666865,81.7447509765625 L29.869001456666865,74.7777099609375 C29.945966788698115,69.75482177734375 30.48353392736999,64.75445556640625 31.473127433229365,59.856689453125 C31.727033683229365,58.67535400390625 32.04292113440124,57.5120849609375 32.41914183752624,56.3731689453125 C32.50141722815124,56.094482421875 32.59394652502624,55.827392578125 32.69679076330749,55.560302734375 C33.00062377111999,54.66485595703125 33.36860472815124,53.79888916015625 33.797041007448115,52.97088623046875 C34.09663207190124,52.39947509765625 34.44074828283874,51.85931396484375 34.82533080236999,51.35687255859375 C35.132490226198115,50.931640625 35.47700316565124,50.5426025390625 35.853620597291865,50.19573974609375 C36.60572631018249,49.49969482421875 37.43543822424499,48.91802978515625 38.32148558752624,48.465576171875 C39.77052123205749,47.72222900390625 41.27851683752624,47.1351318359375 42.825361319948115,46.71221923828125 C46.16572386877624,45.833984375 49.56941039221374,45.29766845703125 52.99506957190124,45.10980224609375 C56.614606925416865,44.9100341796875 60.24177367346374,44.9759521484375 63.853742667604365,45.30718994140625 C67.41889769690124,45.57427978515625 70.95814330236999,46.17633056640625 74.43476683752624,47.10699462890625 C76.01869017736999,47.53619384765625 77.56684691565124,48.118896484375 79.06202513830749,48.8487548828125 C79.73756224768249,49.173583984375 80.38764769690124,49.56201171875 81.00550658361999,50.00994873046875 C81.53700072424499,50.419677734375 82.02070433752624,50.9034423828125 82.44508177893249,51.44976806640625 C82.83012206213562,51.90179443359375 83.17457396643249,52.395751953125 83.47337157385437,52.9244384765625 C83.97663695471374,53.782470703125 84.40702635901062,54.69219970703125 84.75874144690124,55.6416015625 L85.02607543127624,56.3731689453125 L85.02607543127624,56.3731689453125ZM38.251752921510615,58.51641845703125 C37.234418937135615,63.1767578125 36.67701537268249,67.9483642578125 36.589521476198115,72.74530029296875 L81.38804442541687,72.74530029296875 C81.44917113440124,67.90753173828125 80.94520384924499,63.08160400390625 79.88899047033874,58.390625 C79.61524779455749,57.228515625 79.19639403479187,56.11566162109375 78.64488036291687,55.08502197265625 C78.41395384924499,54.6656494140625 78.11265380041687,54.30047607421875 77.75767333166687,54.0098876953125 C76.80879027502624,53.331298828125 75.77869994299499,52.80755615234375 74.69834715979187,52.45428466796875 C70.60908324377624,50.990234375 64.29670531408874,50.24676513671875 58.16786009924499,50.24676513671875 C52.039045401979365,50.24676513671875 46.05299193518249,50.97882080078125 42.57557494299499,52.46575927734375 C41.779523917604365,52.76983642578125 41.03486449377624,53.2222900390625 40.37287718908874,53.803955078125 C39.95435912268249,54.21624755859375 39.60847289221374,54.71282958984375 39.35310179846374,55.26806640625 C38.879255362916865,56.30145263671875 38.509870597291865,57.3909912109375 38.251752921510615,58.51641845703125 L38.251752921510615,58.51641845703125Z"/>
  </defs>
  <g opacity="1">
    <g opacity="1">
      <use xlink:href="#path-1" fill="rgb(255,255,255)" fill-opacity="1"/>
    </g>
    <g opacity="1">
      <use xlink:href="#path-2" fill="rgb(255,255,255)" fill-opacity="1"/>
    </g>
    <g opacity="1">
      <use xlink:href="#path-3" fill="rgb(255,255,255)" fill-opacity="1"/>
      <use xlink:href="#path-3" fill-opacity="0" stroke="rgb(64,64,64)" stroke-opacity="1" stroke-width="1"/>
    </g>
    <g opacity="1">
      <use xlink:href="#path-4" fill="rgb(255,255,255)" fill-opacity="1"/>
    </g>
    <g opacity="1">
      <use xlink:href="#path-5" fill="rgb(255,255,255)" fill-opacity="1"/>
    </g>
    <g opacity="1">
      <use xlink:href="#path-6" fill="rgb(255,255,255)" fill-opacity="1"/>
    </g>
    <g opacity="1">
      <use xlink:href="#path-7" fill="rgb(255,255,255)" fill-opacity="1"/>
      <use xlink:href="#path-7" fill-opacity="0" stroke="rgb(64,64,64)" stroke-opacity="1" stroke-width="1"/>
    </g>
    <g opacity="1">
      <use xlink:href="#path-8" fill="rgb(255,255,255)" fill-opacity="1"/>
    </g>
    <g opacity="1">
      <use xlink:href="#path-9" fill="rgb(255,255,255)" fill-opacity="1"/>
    </g>
    <g opacity="1">
      <use xlink:href="#path-10" fill="rgb(255,255,255)" fill-opacity="1"/>
    </g>
  </g>
</svg>