<?xml version="1.0" encoding="utf-8"?>
<svg version="1.1" xmlns="http://www.w3.org/2000/svg" xmlns:xlink="http://www.w3.org/1999/xlink" height="92.49462932056952" width="91.39654802436326">
  <defs>
    <path id="path-1" opacity="1" fill-rule="evenodd" d="M78.26302819847666,46.50111948010276 C78.6285550501083,46.67301620357069 79.04700769628408,46.69159010611714 79.42615542722821,46.55274714513315 C79.80530331014528,46.413904184149146 80.11402237027697,46.12904195037106 80.28426839234778,45.76094667268588 C81.70083892900884,42.706345100507775 82.44821011955453,39.3809679759172 82.47571828675544,36.010240432830535 C82.52561921176434,32.79420105422417 82.2573311864009,29.581147141226566 81.67482085655236,26.418579589610218 C81.5732897063717,25.88178088357935 81.19488132381427,25.440265051246392 80.68213843048619,25.260346781442205 C80.16939568913105,25.080428664566284 79.60021612223936,25.189442049698318 79.18900422711897,25.546322638853272 C78.77779248397155,25.90320338093649 78.58702129963727,26.453732598401476 78.68855244981795,26.99053130443235 C79.2336851853475,29.948834253369796 79.48416122146863,32.95448578152682 79.43625934860334,35.962832670372016 C79.41560956852344,38.90509757326974 78.76508921731248,41.808330594837514 77.52899886491292,44.474819955666064 C77.1781501683854,45.23844507731464 77.50612982388931,46.14383791303436 78.26302819847666,46.50111948010276Z"/>
    <path id="path-2" opacity="1" fill-rule="evenodd" d="M2.4498039041505564,57.918743819305206 C2.9494636288469,58.26804467188437 3.4771057371276783,58.57495732647977 4.027283093051472,58.836313415276535 C4.683806223692314,59.17428488312597 5.785610088772435,59.7401194673083 5.863116291695312,60.13620367623592 C5.958633203685872,60.65901831576766 5.896167292202304,61.19864328908239 5.68378821434434,61.68536701076752 C5.457348523452013,62.174737461952226 5.220270726276153,62.595290193439084 5.015107247950889,62.95773018384776 C4.458886262269061,63.94717606483684 3.527292097725458,65.60491846822505 4.931522127151707,66.75952687648896 C5.259783692472129,67.0653834084794 5.826642784437486,67.5073460972056 6.343350803923336,67.90648887145313 C5.962970192447426,68.57576260547197 5.790913610279026,69.34449598998957 5.849438726473627,70.11324374976418 C5.930077593342996,70.71868721362405 6.256337036666267,71.26347198663346 6.7506383016357105,71.61805788715716 C7.088018243770589,71.8566259821097 7.448194127941607,72.0646084238632 7.802291094236321,72.26800301763686 C8.701970939929328,72.78184199138079 9.053028447285893,73.0219393689933 9.170047616404746,73.50213412421829 C9.254484104849798,74.1176401150524 9.202586969591383,74.74432057428277 9.018074669497144,75.33727331616096 C8.928410630821658,75.7455917863682 8.841786051084325,76.15543953923539 8.79011524913574,76.56069944412272 C8.639203407738036,77.95441716047256 8.810316587443916,79.36437677624066 9.290106244461752,80.680586930034 C9.973702686913219,83.110391660434 12.157776118423847,84.80315953043961 14.666909106052731,84.8478821784038 C15.085735757650852,84.8466350483946 15.50332474156936,84.80205141222422 15.913087270695073,84.71483458698795 C20.25461667995725,83.67923235554099 24.532756501361852,82.39093940963335 28.725926424475052,80.8564544359285 C32.14987691830334,82.87816611238533 34.31245195279853,89.02588240539323 34.876271585825734,91.33356993926112 C35.044614906601275,92.01576335904777 35.65340834972569,92.49462932056953 36.35192890029855,92.49429547816487 L74.49713857410681,92.3872456919682 C74.98055691957256,92.38630258335182 75.43469281368225,92.15397916121292 75.72030925037093,91.76150497693237 C76.0059256870596,91.36903079265184 76.08894774809049,90.86322942271207 75.94392102866719,90.39917823403033 C75.5681800752739,89.36301353242104 75.04997785777405,88.38495469011795 74.40443507649317,87.49354118012113 C74.0400164115904,86.96489615044833 73.7115132092844,86.41207560877393 73.42117011000099,85.83885734205282 C72.73281837325162,84.43733661385885 72.15899816045315,82.9817493206484 71.70539553941417,81.48651889182881 C70.83723777039579,78.53124667526686 70.23552398700306,75.50325355087406 69.90755557749723,72.4392826755515 C69.37559388135732,67.86053453923464 70.0686683294048,63.22190458765854 71.91511820614666,59.00300522521132 C72.21798645979534,58.2863263285145 72.57780946278363,57.59539902252861 72.99108667025247,56.93694435161588 C73.2788486610056,56.47253821642877 73.29854161941178,55.88892526253971 73.04274759395952,55.40594644823227 C72.7869534165343,54.92296778685309 72.29453356145028,54.61399931757791 71.7509775452449,54.59542663845758 C71.20742152903951,54.576853959337264 70.69530856357635,54.851498596879416 70.40754657282324,55.31590473206653 C69.91505285888701,56.10699837006837 69.4841876702996,56.935287832638615 69.11881598304676,57.79334264118911 C67.06214603211718,62.51072285041117 66.2930724968613,67.69474577071053 66.89089258138131,72.81089836191988 C67.24233625199597,76.05888705507316 67.88320130597103,79.26851216341889 68.80575171241709,82.40102992248023 C69.30581595870352,84.04490050871654 69.93651250280098,85.64561703221298 70.69173598354044,87.18768464813067 C71.03847168423285,87.88024843949098 71.43199149676602,88.54807210769164 71.86952632207436,89.18645708468823 L71.97134819650245,89.33938535068344 L37.500844378920036,89.43573015826044 C36.49198747211449,85.8080008528947 34.66087668082287,82.46510870107144 32.15139664777242,79.66973109180557 L33.519153169940836,79.18800705392063 C34.53737191422178,78.83015491149182 35.304835296105175,78.56100116334024 35.698445228595865,78.43407070256418 C42.20896627411756,76.36189269832894 45.464226796878414,73.37826222876217 45.376082487672,69.56423127484135 C45.35627570152859,68.73399916450815 44.681636483778675,68.07141221891996 43.8289978881526,68.07165139872798 C42.990176368913474,68.09168653085601 42.3262073237389,68.79200424408707 42.3457419263344,69.6361075598591 C42.38221543359223,71.20973941694993 41.10108349116114,73.5051926895382 34.78356808821209,75.51619938737537 C34.37172140209249,75.64924697879123 33.57842261923481,75.92757642290252 32.52525009716512,76.29766282661095 C31.396091101641634,76.69527631819852 29.959946753364786,77.19993959598277 28.36575054030403,77.74130565760585 C24.08892741251144,79.31887159433941 19.725097948938878,80.64646221090331 15.296077106250205,81.71744057348162 C13.878736355496944,81.99311977074323 12.498033485940883,81.09319442638936 12.168473858891744,79.67890678776531 C11.84380522278482,78.8089064465014 11.7216312984771,77.87559410897198 11.811337433658878,76.95066652241056 C11.850850399854856,76.6295171638206 11.923797414370505,76.31142637055054 11.993704969948002,75.99180629462052 C12.303372614819686,74.93453504545164 12.34878919809771,73.81667269972583 12.125921433757615,72.7374927942422 C11.68390202356168,71.33265566367187 10.656655843077717,70.19066995448318 8.996798456930076,69.42812511810561 C9.160895486398779,69.09473583989019 9.356851364592456,68.77821118499217 9.581894302524345,68.48302843425513 C9.836842689710839,68.15795845370985 9.949884772401006,67.74274230699316 9.89517711025166,67.33230562737363 C9.84046946329961,66.92186894775408 9.622689662038216,66.55130449028614 9.291625973930826,66.30532992648318 C8.926890901352579,66.03617617833159 8.066724021855547,65.38776033051184 7.437556021658073,64.8769799220878 C7.510503036173723,64.74393233067195 7.589528968565675,64.59712119531655 7.665515442019478,64.4640736039007 C7.904112968664414,64.04352087241385 8.176144543629023,63.55415042122914 8.442097200717328,62.988315837046805 C8.923009922615517,61.916358121853065 9.064669301467708,60.72150189961626 8.847864968960627,59.56578124407375 C8.48312989638238,57.700056398932055 6.706566147032507,56.78554536828062 5.411756639379731,56.118778128541464 C4.974531580529071,55.90969827355118 4.555184968690399,55.66469266324157 4.157979827392009,55.38625173442435 C3.8348376531557054,55.166484793421525 3.5317276105484936,54.91827594765237 3.252221063822697,54.64454964434752 C3.252221063822697,54.41209868003479 3.4999369672820886,53.849322661172366 4.657970822718021,52.43167763539666 C7.379913351576987,48.90552634287028 9.713686153920301,45.092639139450824 11.618331791086222,41.05993177599198 C11.97446645624496,40.428119961724406 12.17509118652435,39.71968405149299 12.203427636680491,38.99387090239654 C12.046452226674122,37.45669729684724 11.236946440866422,36.06279866635873 9.983102882360418,35.170664252516 C9.375211094730005,34.60330038567373 8.790115249135736,34.06805145469045 8.721727423027316,33.569505307546024 C8.731809657862945,33.20855652065907 8.812365395530353,32.85313027931373 8.958805220203175,32.523475968138705 C9.206521123662569,31.867413707019207 9.49223026384886,31.225114989839277 9.77945913350423,30.58128698999939 C10.402625022952767,29.288277583440195 10.90036283697334,27.937781218267272 11.265754554260583,26.5485686157054 L11.417727501168185,25.897094202565754 C11.738521100680273,24.368223990146927 12.152156797133577,22.86058190325916 12.656307018465144,21.38265179038681 C13.854305762049274,18.055324218691734 15.70913744832381,15.00640957464837 18.109096353509926,12.419526120406871 C21.016338827852366,9.324258016663585 25.592244259240278,7.13432524761201 31.728911855369272,5.906311271670379 C33.29879239692481,5.586691195740365 34.870192667949425,5.283893229069827 36.45679023366479,4.98874167569905 C37.23737222427115,4.795995630014918 37.733843678119726,4.024960598629948 37.58971207935372,3.2292798467039345 C37.445580632560656,2.4335990947779127 36.710688700550286,1.8884292025162495 35.91272708373558,1.9852305315528878 C34.309919019692416,2.2768137638147197 32.71622948443665,2.582670295805163 31.131658174022398,2.902800127524218 C24.279197997958594,4.279154521481213 19.299044527796458,6.696950406865668 15.899409705473388,10.312174614992706 C13.217712014128116,13.199721646681903 11.144245693963125,16.603354596541656 9.803774805009448,20.318271059060056 C9.256294330606886,21.91830353442271 8.806627201001017,23.550549737304188 8.305321548500485,25.851215722767172 C7.980966751726219,27.05064006523753 7.545953218396251,28.2169442743565 7.005952852440482,29.33492162213832 C6.702006958625277,30.032274515076534 6.385903229057463,30.729627408014746 6.113871654092855,31.45144882351219 C5.7640982877430735,32.25494203824918 5.625921992058352,33.13555973023635 5.712663074256784,34.0084094309523 C6.018449709996818,35.37894215167938 6.804487027886428,36.5928254029148 7.926908910700554,37.42788545860546 C8.67005662107873,38.11300409026405 9.157889780652136,38.596257410808946 9.16396869852844,39.01681014229581 C9.10959271733572,39.249264623958666 9.022601670034215,39.472743592762 8.905614688785516,39.68051881671508 C7.085704957164644,43.53618754961842 4.856452460894714,47.18232773599906 2.256798261577899,50.55524781163529 C1.1549943964977802,51.904075117713134 0,53.47770697480397 0.2431567150521641,55.052868114554755 C0.5655205598408801,56.268033057587466 1.3610002152758685,57.30115968626451 2.4498039041505564,57.918743819305206Z"/>
    <path id="path-3" opacity="1" fill-rule="evenodd" d="M59.20714038573258,2.6581149019324797 C58.694326976957136,2.478362436954285 58.125169902061586,2.58756681419772 57.714065451814676,2.944591813514251 C57.30296100156777,3.3016168128307815 57.11236549796013,3.8522218368372227 57.21407445648867,4.388999285839121 C57.31578341501721,4.925776750133846 57.69434498630511,5.367177381604025 58.207158395080555,5.546929846582219 C60.836367274893206,6.4845821047866545 63.3465550459574,7.730883242775995 65.68574711240366,9.260028144946205 C66.3932966796982,9.714422647686025 67.33293750783466,9.505594267936345 67.78449350919765,8.793596903075125 C68.23604951056063,8.08159955350673 68.028525588424,7.13605211359224 67.32097602112947,6.681657580266766 C64.78280759897244,5.024423541020383 62.059417892529254,3.6739309837612772 59.20714038573258,2.6581149019324797Z"/>
    <path id="path-4" opacity="1" fill-rule="evenodd" d="M17.183581106842805,27.958567228181995 L17.335554053750407,27.293329271102785 C17.60215685110558,26.01563440695688 17.94161775880246,24.754439432214006 18.352253068562263,23.516001101020812 C19.268804342929162,20.963484283133994 20.687075152920197,18.622982166590177 22.522390731706864,16.63422913123584 C24.492147202327025,14.765668093765822 26.902926125414115,13.433483772069481 29.52682385467824,12.763614718896786 C30.05662160802713,12.613378999709635 30.464280223675853,12.186612930410831 30.592523962680357,11.647964144096429 C30.72076770168486,11.1093153424892 30.549548292889092,10.542989506838024 30.14492275331475,10.16747679534576 C29.740297365713353,9.791964099146323 29.165519875322325,9.665967555997895 28.64234130367599,9.838096990408198 C25.510774753835143,10.657030745156836 22.641906208451623,12.274559926945917 20.312704083670333,14.534524039121452 C18.19636499459643,16.82159867787238 16.560402360482964,19.51488932902965 15.502760314044728,22.45314965235402 C15.04715028235004,23.80904683216884 14.671628170000291,25.190872234841812 14.378160506928474,26.59138853018472 L14.226187560020872,27.253567921944025 C14.096441264490295,27.787568040707185 14.261500297910215,28.350556935715865 14.658516704005839,28.728171233317916 C15.055533110101463,29.105785530919967 15.623412092513515,29.239916007387322 16.145928214084275,29.079491197793015 C16.66844433565504,28.919066388198708 17.06519007793222,28.488773349594084 17.183581106842805,27.958567228181995Z"/>
    <ellipse id="ellipse-5" opacity="1" rx="1.5197294690760215" ry="1.5292826599522158" cx="13.89032734735559" cy="32.85227174002959"/>
    <path id="path-6" opacity="1" fill-rule="evenodd" d="M56.442752481482486,23.67657578031617 C52.2482182972249,23.68163174171824 48.849129513700085,27.102087580771627 48.84410513610237,31.322989080077264 C48.84410513610237,32.16758849514418 49.52451127126858,32.85227174002948 50.3638346051784,32.85227174002948 C51.20315793908821,32.85227174002948 51.883564074254416,32.16758849514418 51.883564074254416,31.322989080077264 C51.883564074254416,28.789190681948256 53.92478232778011,26.73514110022061 56.442752481482486,26.73514110022061 C57.2820758153923,26.73514110022061 57.962481950558505,26.050457855335303 57.962481950558505,25.20585844026839 C57.962481950558505,24.361259025201473 57.2820758153923,23.67657578031617 56.442752481482486,23.67657578031617Z"/>
    <path id="path-7" opacity="1" fill-rule="evenodd" d="M83.79791521186326,49.674391949096844 C82.233889332957,49.676406109253094 80.70917009467576,50.167556011596844 79.43475603217576,51.079787456909344 L67.357424489207,39.581130230346844 C70.7933375751445,35.028090679565594 71.04681657905076,28.803115093628094 67.992678395457,23.982436382690594 L73.17804216498826,19.807509624878094 C76.70978044623826,22.957289898315594 82.05060075873826,22.859694683471844 85.46637224311326,19.582900249878094 C88.88214372748826,16.306105816284344 89.234133473582,10.942580425659344 86.27630876655076,7.242202007690594 C83.31842302436326,3.5418235897218437 78.03680681342576,2.7382347225343437 74.124026051707,5.393264019409344 C70.2113063251445,8.048354351440594 68.97186540717576,13.276869976440594 71.27228044623826,17.423354351440594 L66.10516618842576,21.586074078003094 C62.636233082957006,18.076186382690594 57.551272145457006,16.730361187378094 52.815127125925756,18.068740093628094 L51.496035329050756,14.765456402221844 C54.635378590769506,12.677626812378094 55.778444997019506,8.589064800659344 54.181399098582006,5.160353863159344 C52.584353200144506,1.7316429256593437 48.730288258738256,0.000014507690593745792 45.127260914988256,1.0923606990968437 C41.524233571238256,2.1846458553468437 39.262148610300756,5.770522320190594 39.813112965769506,9.516371929565594 C40.364077321238256,13.262221538940594 43.561342946238256,16.034926617065594 47.324404469675756,16.030165874878094 C47.775820485300756,16.024672710815594 48.225832692332006,15.979079449096844 48.669314137644506,15.894057476440594 L49.986941090769506,19.194289410034344 C44.179445973582006,22.318618023315594 41.412783375925756,29.166884624878094 43.406496754832006,35.482680523315594 L36.686281911082006,38.489211285034344 C34.029177418894506,34.412062847534344 28.708193532175756,33.067885601440594 24.452517262644506,35.398757183471844 C20.196779957957006,37.729628765503094 18.429690114207006,42.955947124878094 20.389651051707006,47.414992535034344 C22.349611989207006,51.873976910034344 27.381106129832006,54.074233257690594 31.957888356394506,52.473769390503094 C36.534670582957006,50.873305523315594 39.125979176707006,46.007460796753094 37.915713063425756,41.286269390503094 L44.660280934519506,38.270522320190594 C46.316103688425756,41.106032574096844 48.922549000925756,43.254348003784344 52.011233082957006,44.329543316284344 L50.151064625925756,52.754348003784344 C47.072756520457006,52.845656597534344 44.542727223582006,55.227126324096844 44.246950856394506,58.311782085815594 C43.951235524363256,61.396437847534344 45.982180348582006,64.22077866784684 48.986391774363256,64.90254136315934 C51.990542164988256,65.58430405847184 55.029604664988256,63.910598003784344 56.078188649363256,60.996840679565594 C57.126772633738256,58.083022320190594 55.857424489207006,54.839247906128094 53.116091481394506,53.427260601440594 L54.971682301707006,45.003981792846844 C55.460207692332006,45.057753765503094 55.951296559519506,45.085280620971844 56.442751637644506,45.086562359253094 C59.680117360300756,45.087783062378094 62.811892262644506,43.927443706909344 65.275393239207,41.813857281128094 L77.35577653998826,53.314101421753094 C76.6048610126445,54.514296734253094 76.20416521186326,55.902602398315594 76.199221364207,57.320815288940594 C76.199221364207,61.543776714721844 79.60125993842576,64.96723862878434 83.79791521186326,64.96723862878434 C87.9945094501445,64.96723862878434 91.39654802436326,61.543776714721844 91.39654802436326,57.320815288940594 C91.39654802436326,53.097792828003094 87.9945094501445,49.674391949096844 83.79791521186326,49.674391949096844 L83.79791521186326,49.674391949096844ZM42.765139332957006,8.383742535034344 C42.761111012644506,6.072829449096844 44.465700856394506,4.119643413940594 46.743471852488256,3.8252098201905937 C49.021242848582006,3.5307762264405937 51.161074391550756,4.987075054565594 51.737551442332006,7.224013531128094 C52.314028493113256,9.460890972534344 51.147158375925756,11.780104839721844 49.005190602488256,12.636672222534344 C48.471255055613256,12.855178081909344 47.900698414988256,12.968825542846844 47.324343434519506,12.971633160034344 C46.115175954050756,12.971633160034344 44.955507985300756,12.488234722534344 44.100527516550756,11.627883160034344 C43.245486012644506,10.767470562378094 42.765139332957006,9.600539410034344 42.765139332957006,8.383742535034344 L42.765139332957006,8.383742535034344ZM45.804629079050756,31.322951519409344 C45.804629079050756,25.410781109253094 50.567446461863256,20.617995464721844 56.442751637644506,20.617995464721844 C62.317995778269506,20.617995464721844 67.080813161082,25.410781109253094 67.080813161082,31.322951519409344 C67.080813161082,37.235182964721844 62.317995778269506,42.027968609253094 56.442751637644506,42.027968609253094 C50.570254079050756,42.021193706909344 45.811342946238256,37.232375347534344 45.804629079050756,31.322951519409344 L45.804629079050756,31.322951519409344ZM23.008730641550756,43.557265484253094 C23.008730641550756,46.935683453003094 25.730349293894506,49.674391949096844 29.087649098582006,49.674391949096844 C32.444948903269506,49.674391949096844 35.166567555613256,46.935683453003094 35.166567555613256,43.557265484253094 C35.166567555613256,40.178847515503094 32.444948903269506,37.440139019409344 29.087649098582006,37.440139019409344 C25.730349293894506,37.440139019409344 23.008730641550756,40.178847515503094 23.008730641550756,43.557265484253094 L23.008730641550756,43.557265484253094ZM50.363833180613256,61.908644878784344 C48.685244313425756,61.908644878784344 47.324404469675756,60.539260113159344 47.324404469675756,58.850112163940594 C47.324404469675756,57.160903179565594 48.685244313425756,55.791518413940594 50.363833180613256,55.791518413940594 C52.042483082957006,55.791518413940594 53.403322926707006,57.160903179565594 53.403322926707006,58.850112163940594 C53.403322926707006,60.539260113159344 52.042483082957006,61.908644878784344 50.363833180613256,61.908644878784344 L50.363833180613256,61.908644878784344Z"/>
  </defs>
  <g opacity="1">
    <g opacity="1">
      <use xlink:href="#path-1" fill="rgb(255,255,255)" fill-opacity="1"/>
    </g>
    <g opacity="1">
      <use xlink:href="#path-2" fill="rgb(255,255,255)" fill-opacity="1"/>
    </g>
    <g opacity="1">
      <use xlink:href="#path-3" fill="rgb(255,255,255)" fill-opacity="1"/>
    </g>
    <g opacity="1">
      <use xlink:href="#path-4" fill="rgb(255,255,255)" fill-opacity="1"/>
    </g>
    <g opacity="1">
      <use xlink:href="#ellipse-5" fill="rgb(255,255,255)" fill-opacity="1"/>
    </g>
    <g opacity="1">
      <use xlink:href="#path-6" fill="rgb(255,255,255)" fill-opacity="1"/>
    </g>
    <g opacity="1">
      <use xlink:href="#path-7" fill="rgb(255,255,255)" fill-opacity="1"/>
    </g>
  </g>
</svg>