<?xml version="1.0" encoding="utf-8"?>
<svg version="1.1" xmlns="http://www.w3.org/2000/svg" xmlns:xlink="http://www.w3.org/1999/xlink" height="122.24000000000012" width="77.65940466720804">
  <defs>
    <path id="path-1" opacity="1" fill-rule="evenodd" d="M24.715433267973363,77.07524599704956 C23.906023176174408,72.40332958867415 23.92483715506412,66.39622538337659 23.959193116514914,55.48970994680794 C23.966555108254365,53.08405560142402 23.974735099075982,50.44056575937646 23.974735099075982,47.52739114545986 L23.858170229867948,38.789521811512934 L32.12527795373473,41.11120988590082 C32.33550371785028,41.15794973133211 33.65411823829486,41.4350797883141 35.5007511662748,41.4350797883141 C41.26764469551447,41.4350797883141 45.65171077635987,39.03397533938809 48.53270354373323,34.145732035786445 L50.77729302518481,30.414403313346913 L34.823447926244945,30.414403313346913 C39.05618417689043,27.105387707591863 41.82388407138439,22.34205974310747 41.82388407138439,16.70721979345734 C41.82429307092549,7.501124751296088 34.445123350745185,1.1368683772161603e-13 25.343656563073516,1.1368683772161603e-13 C16.239735778155364,1.1368683772161603e-13 8.861384057057222,7.520565217979897 8.861384057057222,16.72666026014116 C8.861384057057222,22.361500209791284 11.629083951551184,27.10538770759187 15.862229201737758,30.414403313346916 L5.424151913813943,30.414403313346916 L5.221288141437854,30.414403313346916 L4.907994492969938,30.414403313346916 L4.907994492969938,30.269220253644413 C2.453997246484969,30.373454245225695 0,32.83329372115386 0,35.597149005860764 L0,76.90814070895892 C0,79.73238552847087 2.4278212758557958,82.11818578022026 5.221288141437854,82.11818578022026 L5.423742914272866,82.11818578022026 C7.548904529728849,82.11818578022026 9.406989444859054,80.66883694489954 10.22498852702071,78.80586115885946 L10.22498852702071,114.53619804285172 C10.22498852702071,118.70473045220163 13.703120624372074,122.2400000000002 17.82542699892574,122.2400000000002 L18.029926769466154,122.2400000000002 C22.152233144019824,122.2400000000002 25.494168394191266,118.8598405587214 25.494168394191266,114.6913081493715 C25.494168394191266,118.8598405587214 28.83610364436271,122.2400000000002 32.958410018916375,122.2400000000002 L33.16290978945679,122.2400000000002 C37.285216164010464,122.2400000000002 40.49095456700199,118.70473045220163 40.49095456700199,114.53619804285172 L40.49095456700199,97.36116616813086 C37.21895823835537,94.84714156165847 33.77477310291371,92.08494078475445 31.520776632017274,89.83522379979173 C28.039781537878333,86.36075741374893 25.743658114250568,83.01368812852772 24.715433267973363,77.07524599704956Z"/>
    <path id="path-2" opacity="1" fill-rule="evenodd" d="M50.79253230880602,72.13185426317784 L50.79253230880602,78.74355828220877 L57.13207429514361,78.74355828220877 L57.13207429514361,72.13185426317784 L63.47161628148121,72.13185426317784 L63.47161628148121,65.52015024414692 L57.13207429514361,65.52015024414692 L57.13207429514361,58.49521472392655 L50.79253230880602,58.49521472392655 L50.79253230880602,65.52015024414692 L44.056768948322315,65.52015024414692 L44.056768948322315,72.13185426317784 L50.79253230880602,72.13185426317784Z"/>
    <path id="path-3" opacity="1" fill-rule="evenodd" d="M72.67942419845804,48.09878087619438 C75.62696448166116,48.09878087619438 77.63169470627054,47.57284093478813 77.63169470627054,47.57284093478813 C77.63169470627054,50.49575353244438 77.63993445236429,53.14834142306938 77.64741125900491,55.56252599338188 C77.71171179611429,76.29287267306938 77.72147742111429,79.43960118869438 71.99885168869241,85.18862462619438 C66.84653845627054,90.36440587619438 54.13755408127054,98.99184728244438 54.13755408127054,98.99184728244438 C54.13755408127054,98.99184728244438 41.42856970627054,90.36477208713188 36.27665320236429,85.18862462619438 C30.55372229416116,79.43935704806938 30.56348791916116,76.29250646213188 30.627727421114287,55.55910802463188 C30.63520422775491,53.14590001681938 30.643413456270537,50.49441075900688 30.643413456270537,47.57284093478813 C30.643413456270537,47.57284093478813 32.64731970627054,48.09878087619438 35.59568396408304,48.09878087619438 C40.78010168869241,48.09878087619438 48.88279333908304,46.47201085666313 54.13755408127054,37.49691320041313 C59.39271155197366,46.47243810275688 67.49500647384866,48.09878087619438 72.67942419845804,48.09878087619438 L72.67942419845804,48.09878087619438ZM66.63834753830179,80.23965001681938 C68.74921789962991,78.11880040744438 69.52531042892679,76.70351720431938 69.95951453048929,74.18325353244438 C70.47694006759866,71.17739415744438 70.46244421798929,66.47292638400688 70.43845740158304,58.67336583713188 L70.42625037033304,54.97256017306938 L67.53196326095804,54.83181310275688 C63.09235754806741,54.61660314181938 59.26707068283304,53.08254552463188 56.16340246994241,50.27309728244438 L54.13712683517679,48.43899083713188 L52.11124792892679,50.27309728244438 C49.00718298752054,53.08254552463188 45.18229285080179,54.61623693088188 40.74225989181741,54.83181310275688 L37.84840002853616,54.97256017306938 L37.83579626877054,58.65639806369438 L37.83576575119241,58.66640782931938 C37.81260290939554,66.46779943088188 37.79859534103616,71.17605138400688 38.31592932541116,74.18325353244438 C38.74973669845804,76.70266271213188 39.52543249923929,78.11794591525688 41.63709631759866,80.24050450900688 C44.20612707931741,82.82119298556938 49.47797766525491,86.68130040744438 52.39136877853616,88.75295568088188 L54.13752356369241,89.99441075900688 L55.88328162033304,88.75295568088188 C58.79627600509866,86.68215489963188 64.06687537033304,82.82277989963188 66.63834753830179,80.23965001681938 L66.63834753830179,80.23965001681938Z"/>
  </defs>
  <g opacity="1">
    <g opacity="1">
      <use xlink:href="#path-1" fill="rgb(255,255,255)" fill-opacity="1"/>
    </g>
    <g opacity="1">
      <use xlink:href="#path-2" fill="rgb(255,255,255)" fill-opacity="1"/>
    </g>
    <g opacity="1">
      <use xlink:href="#path-3" fill="rgb(255,255,255)" fill-opacity="1"/>
    </g>
  </g>
</svg>