<?xml version="1.0" encoding="UTF-8"?>
<svg width="789px" height="210px" viewBox="0 0 789 210" version="1.1" xmlns="http://www.w3.org/2000/svg" xmlns:xlink="http://www.w3.org/1999/xlink">
    <!-- Generator: Sketch 50.2 (55047) - http://www.bohemiancoding.com/sketch -->
    <title>Group 2</title>
    <desc>Created with Sketch.</desc>
    <defs></defs>
    <g id="Page-1" stroke="none" stroke-width="1" fill="none" fill-rule="evenodd">
        <g id="Group-2" fill-rule="nonzero">
            <g id="Group">
                <path d="M290.473986,144.946048 C293.445986,145.474048 297.991319,145.474048 302.363319,145.474048 C330.344652,145.648715 346.959318,130.259382 346.959318,100.350049 C347.133985,74.2940497 332.096652,59.4273834 305.165986,59.4273834 C298.343319,59.4273834 293.445986,59.9580501 290.473986,60.6487168 L290.473986,144.946048 Z M268.960653,45.0887171 C278.405987,43.5140505 290.473986,42.6420505 303.239319,42.6420505 C325.273985,42.6420505 340.488652,47.1820504 351.329985,56.2807169 C362.700651,65.54605 369.693984,79.5420496 369.693984,99.6540491 C369.693984,120.642049 362.527318,136.380715 351.329985,146.524715 C339.616652,157.188714 320.900652,162.612714 297.991319,162.612714 C285.39932,162.612714 275.95932,161.914048 268.960653,161.038048 L268.960653,45.0887171 Z M468.498515,118.014049 C468.498515,149.319381 446.461182,163.312714 424.77585,163.312714 C400.63985,163.312714 382.103851,146.699381 382.103851,119.416715 C382.103851,91.436716 400.465184,74.2940497 426.174516,74.2940497 C451.535849,74.2940497 468.498515,92.132716 468.498515,118.014049 Z M404.313183,118.888715 C404.313183,135.327382 412.35985,147.744715 425.474516,147.744715 C437.714516,147.744715 446.287849,135.678048 446.287849,118.540715 C446.287849,105.250049 440.339849,90.0340493 425.65185,90.0340493 C410.43585,90.0340493 404.313183,104.726049 404.313183,118.888715 Z M548.759046,158.766314 C544.209713,160.864981 535.295047,163.139648 524.62438,163.139648 C498.043048,163.139648 480.728382,146.172981 480.728382,119.767649 C480.728382,94.2289826 498.215048,74.2943164 528.123047,74.2943164 C535.985713,74.2943164 544.03638,76.0436497 548.93638,78.3223163 L545.08438,94.4076492 C541.595047,92.8329826 536.51638,91.0849827 528.823047,91.0849827 C512.383047,91.0849827 502.587048,103.151649 502.761714,118.715649 C502.761714,136.204982 514.135047,146.172981 528.823047,146.172981 C536.337713,146.172981 541.595047,144.598315 545.787047,142.847648 L548.759046,158.766314 Z M587.052112,43.5137838 L587.052112,90.7337827 L636.897444,90.7337827 L636.897444,43.5137838 L658.40811,43.5137838 L658.40811,161.385781 L636.897444,161.385781 L636.897444,109.448449 L587.052112,109.448449 L587.052112,161.385781 L565.544113,161.385781 L565.544113,43.5137838 L587.052112,43.5137838 Z M782.218507,180.27698 C765.771841,175.727647 751.086508,170.827647 736.223842,165.056981 C733.594509,164.188981 731.147842,163.488981 728.521175,163.312981 C701.243843,161.912981 676.93451,141.798315 676.93451,103.499649 C676.93451,67.1236499 699.489176,41.5916506 733.250509,41.5916506 C767.354508,41.5916506 787.638507,67.8236499 787.638507,101.052982 C787.638507,129.562315 774.517174,148.622315 757.203841,155.443648 L757.203841,156.136981 C767.354508,158.935648 778.717174,161.386314 788.337174,163.312981 L782.218507,180.27698 Z M764.897174,102.100982 C764.897174,79.5423163 753.885175,58.9009835 732.551842,58.9009835 C711.034509,58.9009835 699.489176,79.3663163 699.669176,102.975649 C699.489176,126.582315 711.557176,145.990315 732.195842,145.990315 C753.006508,145.990315 764.897174,126.758315 764.897174,102.100982 Z" id="Combined-Shape" fill="#1F2529"></path>
                <path d="M105.886324,167.359929 C105.919427,167.50883 105.953209,167.657501 105.983058,167.807381 C106.179058,168.599381 106.413724,169.416714 106.773724,170.314047 C110.981724,180.822047 119.932391,188.054047 130.785724,190.314047 L161.540389,190.314047 C177.352389,190.314047 190.220389,177.448714 190.220389,161.640714 L190.220389,38.839384 C190.220389,23.030051 177.352389,10.1633847 161.540389,10.1633847 L38.7403926,10.1633847 C22.9270596,10.1633847 10.0670599,23.030051 10.0670599,38.839384 L10.0670599,161.640714 C10.0670599,177.448714 22.9270596,190.314047 38.7403926,190.314047 L57.6790587,190.314047 C57.6159476,197.066936 57.573281,200.381158 57.5510588,200.256713 L38.7403926,200.256713 C17.4483931,200.256713 0.129726855,182.928714 0.129726855,161.640714 L0.129726855,38.839384 C0.129726855,17.5473845 17.4483931,0.223384928 38.7403926,0.223384928 L161.540389,0.223384928 C182.833722,0.223384928 200.160389,17.5473845 200.160389,38.839384 L200.160389,161.640714 C200.160389,182.928714 182.833722,200.256713 161.540389,200.256713 L138.557723,200.150047 C119.683057,200.500713 103.320391,189.700714 98.4230577,171.515381 C98.1290833,170.429391 97.795548,169.410103 97.4182167,168.44148 L96.2858578,167.381114 C93.6271912,164.899781 90.9738579,162.418448 88.2765247,159.979781 C84.7151914,156.766448 81.1165248,153.595781 77.5098583,150.433115 C75.7498583,148.890448 73.988525,147.367781 72.2245251,145.835781 C69.3565251,143.353115 66.4925252,140.870448 63.6645253,138.341115 C59.0085254,134.175782 55.5018588,130.905115 52.3005256,127.754448 C48.4071923,123.923782 45.0711924,119.793115 42.3898591,115.482449 C38.6138592,109.407782 36.232526,102.619782 35.3191926,95.3131159 C35.0751926,93.3424493 34.9551927,91.3904493 34.8378593,89.505116 C34.7898593,88.733116 34.7458593,87.9597827 34.688526,87.1904494 C34.4098593,83.4211162 34.7258593,79.5664496 35.620526,75.739783 C36.9871926,69.9131165 39.6138592,64.7477833 43.4258591,60.3917834 C48.685859,54.3784502 55.2818588,50.541117 63.0418586,48.8904504 L63.0311919,48.9624504 C64.0938586,48.705117 65.1818586,48.4837837 66.3045252,48.3304504 C72.948525,47.3904504 79.2285249,48.4837837 85.7791914,51.7237836 C87.2231913,52.4384503 88.781858,52.9184503 90.4418579,53.4264503 C91.3378579,53.7037836 92.2365246,53.9797836 93.1151912,54.2917836 C96.2618578,55.4237835 100.965858,57.1171168 100.317858,62.1637834 C99.9565244,64.89445 97.3711911,67.6997832 95.1058578,68.9531165 C91.4871912,70.9397832 87.061858,68.8864499 84.9725247,64.2211167 C82.7005248,59.1664501 78.9818582,56.5091169 73.5978584,56.1051169 C72.9231917,56.0584502 72.2365251,56.0331169 71.5471917,56.0331169 C69.0778585,56.0331169 63.1245253,56.4797835 58.0245254,59.9011168 L58.0245254,60.0104501 C55.0858588,61.5317834 52.4658589,63.6037833 50.1338589,66.2651166 C47.2951923,69.5077832 45.3338591,73.3824498 44.3045258,77.7771163 C43.6138591,80.7224496 43.3685258,83.6704495 43.5791924,86.5411161 C43.6391924,87.3491161 43.6898591,88.1544494 43.7365258,88.961116 C43.8498591,90.7904493 43.9525258,92.5157826 44.1671924,94.2064492 C44.9205257,100.226449 46.869859,105.795782 49.9631923,110.773115 C52.2738589,114.487782 55.1645255,118.061115 58.5551921,121.398449 C61.6538587,124.454448 65.0618586,127.626448 69.6111918,131.697115 C72.4018584,134.195782 75.232525,136.646448 78.0618582,139.094448 C79.8405249,140.638448 81.6165248,142.179781 83.3871914,143.727781 C87.0271913,146.919781 90.6591913,150.118448 94.2525245,153.366448 C96.5471911,155.437114 98.8125244,157.546448 101.076524,159.657114 C102.805858,158.046448 104.536524,156.446448 106.271191,154.847781 C108.415191,152.890448 110.560524,150.943781 112.727191,149.025115 C115.608524,146.473115 118.505857,143.949115 121.397857,141.425115 L125.156524,138.161115 C127.389857,136.226448 129.62719,134.291782 131.836524,132.326448 L132.57119,131.669115 C135.568523,129.005115 138.664523,126.245115 141.544523,123.442449 C143.65919,121.379782 145.841857,119.025115 148.209856,116.239782 C151.861856,111.951782 154.524523,107.279782 156.129856,102.355782 C157.977856,96.6851158 158.777856,90.4064493 158.561856,83.1557829 C158.47119,80.0891163 157.876523,77.1144497 156.781856,74.3144497 C154.96319,69.6291165 152.281856,65.90645 148.69519,63.02645 L148.689856,63.02645 C143.19919,56.6851168 134.660523,56.0331169 131.57919,56.0331169 C130.89119,56.0331169 130.205857,56.0584502 129.529857,56.1051169 C124.148524,56.5091169 120.429857,59.1664501 118.156524,64.2211167 C116.063191,68.8864499 111.644524,70.9397832 108.020524,68.9531165 C105.759191,67.6997832 103.169858,64.89445 102.809858,62.1637834 C102.160524,57.1171168 106.865858,55.4237835 110.009857,54.2917836 C110.888524,53.9797836 111.791191,53.7037836 112.684524,53.4264503 C114.345857,52.9184503 115.905857,52.4384503 117.348524,51.7237836 C123.89919,48.4837837 130.177857,47.3904504 136.820523,48.3304504 C140.865857,48.8984504 144.52719,50.1264503 147.72719,51.9184503 C155.865856,55.9891169 161.724523,62.4091167 165.092523,71.0771165 C166.556523,74.8317831 167.353856,78.811783 167.476523,82.8984495 C167.717856,91.1904493 166.780523,98.4637825 164.603189,105.123782 C162.637856,111.153115 159.408523,116.835782 154.99919,122.018449 C152.45119,125.017115 150.08319,127.570448 147.76319,129.831782 C144.73919,132.774448 141.56719,135.599782 138.500523,138.327781 L137.768523,138.982448 C135.52719,140.978448 133.256524,142.939781 130.99119,144.906448 L127.260524,148.145115 C124.37919,150.658448 121.49919,153.166448 118.639191,155.701114 C116.507191,157.586448 114.399191,159.501114 112.296524,161.419781 C110.153444,163.390391 108.015936,165.371215 105.886324,167.359929 Z" id="Combined-Shape" fill="#1F2529"></path>
                <path d="M65.6759203,209.263874 C57.942308,209.263874 51.6745256,202.994696 51.6745256,195.268058 C51.6745256,187.542814 57.942308,181.270847 65.6759203,181.270847 C73.4067431,181.270847 79.6745256,187.542814 79.6745256,195.268058 C79.6745256,202.994696 73.4067431,209.263874 65.6759203,209.263874" id="path50" fill="#E50051" transform="translate(65.674526, 195.267360) scale(-1, 1) rotate(-180.000000) translate(-65.674526, -195.267360) "></path>
            </g>
        </g>
    </g>
</svg>